<svg width="85" height="90" viewBox="0 0 85 90" fill="none" xmlns="http://www.w3.org/2000/svg">
<g id="Group">
<g id="Group_2">
<path id="Vector" d="M24.821 48.0195C21.7606 48.2967 19.4758 51.4775 19.4758 51.4775C19.4758 51.4775 18.5406 52.6704 17.653 53.7176C17.401 54.0144 17.3086 54.4624 17.5634 55.8848C17.961 58.108 19.5626 58.0268 19.5626 58.0268C19.5626 58.0268 19.4366 58.2228 19.9546 60.1996C20.5818 62.5768 21.6178 62.308 23.127 62.3192C23.2586 63.0584 23.4434 63.5372 23.6814 64.226C24.023 65.22 25.4818 65.0016 27.0162 64.9764C30.5974 64.9148 31.9974 62.238 31.9022 61.0424C31.8882 60.8716 32.4202 59.6424 32.5966 58.976C33.543 55.4032 27.901 47.7367 24.821 48.0167V48.0195Z" fill="#FFA115"/>
<path id="Vector_2" d="M24.2645 57.5088C22.7077 57.3324 20.4677 57.4136 19.0537 57.254C18.6449 57.2092 17.6061 55.5964 17.4941 55.4648C17.5137 55.5964 17.5361 55.7364 17.5641 55.8876C17.9113 57.8336 19.1825 58.0156 19.4933 58.0296C19.5129 58.0296 19.5325 58.024 19.5549 58.024C21.1537 57.9288 23.2005 57.6964 24.2645 57.5116V57.5088Z" fill="#FFD868"/>
<path id="Vector_3" d="M27.187 61.8602C25.8934 61.8602 23.0178 61.793 21.489 61.6222C21.2006 61.5886 20.5818 61.107 20.0078 60.3818C20.6378 62.5574 21.6598 62.311 23.127 62.3222C25.465 62.2214 27.201 61.8602 27.187 61.8602Z" fill="#FFD868"/>
<path id="Vector_4" d="M39.9537 41.4429C39.9537 41.4429 34.3229 46.1413 32.5281 46.1413C30.4057 46.1413 27.7093 45.8669 24.2429 47.7233C21.1405 49.3837 20.4349 50.1313 20.6057 50.8145C20.8409 51.7497 24.6153 50.3805 24.6153 50.3805C24.6153 50.3805 29.5293 51.2681 29.9185 53.2421C29.9185 53.2421 33.6705 57.2797 34.0009 60.0097C34.0009 60.0097 43.5209 54.4881 46.4049 45.7773L39.9509 41.4457L39.9537 41.4429Z" fill="#FFD868"/>
<path id="Vector_5" d="M46.406 45.7748C39.2632 49.3336 37.614 57.4452 31.4764 62.5777C31.4736 62.5805 31.4708 62.5805 31.4708 62.5805C31.6752 62.1045 31.6024 61.5304 31.5016 60.9956C31.2888 59.8784 31.5212 59.0692 30.4852 59.3492C30.824 58.9992 30.4124 57.8848 30.3368 57.2996C30.236 56.5184 29.9112 55.7036 29.34 55.6364C28.668 55.5552 28.1416 55.698 28.1416 55.698C28.99 54.8888 28.822 54.3456 28.6932 53.654C28.4468 52.3016 28.3068 52.1504 27.184 51.9908C26.1424 51.8424 25.462 50.8344 25.084 50.7448C25.6496 50.7728 26.862 51.204 28.4244 51.2124C28.514 51.2124 28.6008 51.2096 28.6904 51.2096C29.116 51.1984 29.564 51.1536 30.0316 51.064C31.23 50.8344 30.95 51.2012 31.846 49.86C34.422 46.01 41.8868 43.5908 41.8868 43.5908L46.4032 45.7776L46.406 45.7748Z" fill="#FF8515"/>
<path id="Vector_6" d="M28.7914 54.8882C28.7914 54.8882 27.8086 56.795 23.4238 57.6378C23.4238 57.6378 27.285 57.7274 28.993 55.6106L28.7942 54.8882H28.7914Z" fill="#FF8515"/>
<path id="Vector_7" d="M30.2757 59.497C30.2757 59.497 29.5981 61.5186 25.6445 62.1066C25.6445 62.1066 29.8389 62.2242 31.1913 59.2842L30.2785 59.497H30.2757Z" fill="#FF8515"/>
<path id="Vector_8" d="M29.0877 51.2208L28.9785 51.6464L28.5809 53.0828C28.5277 52.534 28.0041 52.2036 27.6261 52.0552C26.8141 51.7276 25.6997 52.1308 23.7397 53.0016C22.7961 53.4216 22.0177 53.4244 21.3961 53.2396C20.0829 52.842 20.2621 51.6744 20.2621 51.6744C20.2621 51.6744 20.4077 50.8092 21.5053 50.2492C22.0905 49.9496 22.7233 49.7144 23.2805 49.692C23.6585 49.6752 24.0029 49.7592 24.2773 49.9832C24.9577 50.5404 26.0609 50.8456 27.0381 51.0136C27.5505 51.1032 28.0293 51.1536 28.3933 51.1816C28.5053 51.19 28.6061 51.1956 28.6929 51.204C28.9393 51.2152 29.0877 51.218 29.0877 51.218V51.2208Z" fill="#FF8515"/>
<path id="Vector_9" d="M46.4062 45.7746C39.7338 49.0982 37.855 56.395 32.633 61.5274C32.2662 61.8886 31.8798 62.2386 31.4766 62.5774C31.4738 62.5774 31.471 62.5774 31.471 62.5774C31.6754 62.1014 31.6026 61.5274 31.5018 60.9926C31.2918 59.8754 31.4626 59.0774 30.4294 59.3574C30.8438 58.9906 30.4154 57.8846 30.3398 57.2994C30.239 56.5182 29.9114 55.7034 29.343 55.6334C28.671 55.555 28.1446 55.695 28.1446 55.695C28.993 54.8886 28.825 54.3454 28.699 53.651C28.6598 53.4326 28.6206 53.245 28.5814 53.0826C28.5814 53.0826 28.5814 53.0742 28.5814 53.0714C28.5534 52.9594 28.5254 52.8586 28.4946 52.7718C28.3406 52.3406 28.1278 52.1754 27.6658 52.0718C27.5314 52.041 27.3746 52.0158 27.1898 51.9878C27.1198 51.9766 27.0498 51.9626 26.9826 51.943C26.0558 51.705 25.4426 50.823 25.0898 50.739C25.5882 50.7642 26.5906 51.103 27.8926 51.187C28.0662 51.1982 28.2454 51.2066 28.4302 51.2066C28.5198 51.2066 28.6066 51.2038 28.6962 51.2038C28.9622 51.1982 29.2338 51.1758 29.5166 51.1394C29.6874 51.1198 29.861 51.0918 30.0374 51.0582C31.2358 50.8286 30.953 51.1954 31.8518 49.8542C34.4278 46.0014 41.8926 43.585 41.8926 43.585L46.409 45.7718L46.4062 45.7746Z" fill="#FF8515"/>
<path id="Vector_10" d="M29.0889 51.2209L28.9797 51.6465L28.6493 52.8421L28.5821 53.0829C28.5821 53.0829 28.5821 53.0773 28.5821 53.0745C28.5709 52.9653 28.5401 52.8645 28.4953 52.7749C28.3245 52.4193 27.9605 52.1953 27.6665 52.0749C27.6525 52.0665 27.6413 52.0637 27.6301 52.0581C27.4341 51.9797 27.2213 51.9433 26.9833 51.9461C26.2329 51.9517 25.2305 52.3437 23.7437 53.0045C23.1809 53.2565 22.6769 53.3573 22.2317 53.3601C21.9265 53.3601 21.6521 53.3181 21.4001 53.2425C20.0869 52.8449 20.2661 51.6773 20.2661 51.6773C20.2661 51.6773 20.4117 50.8121 21.5093 50.2521C22.0945 49.9525 22.7273 49.7173 23.2845 49.6949C23.5057 49.6837 23.7185 49.7089 23.9089 49.7789C24.0433 49.8265 24.1693 49.8937 24.2813 49.9861C24.9617 50.5433 26.0649 50.8485 27.0421 51.0165C27.3333 51.0669 27.6133 51.1061 27.8681 51.1341C28.0613 51.1565 28.2405 51.1733 28.3973 51.1845C28.5093 51.1929 28.6101 51.1985 28.6969 51.2069C28.9433 51.2181 29.0917 51.2209 29.0917 51.2209H29.0889Z" fill="#FF8515"/>
<g id="Group_3">
<path id="Vector_11" d="M30.8467 45.8191L26.5543 48.2663L16.9671 53.7347C16.9671 53.7347 16.9643 53.7375 16.9615 53.7375C16.7907 53.8327 16.6003 53.8691 16.4099 53.8467L15.3711 51.6711L30.4295 43.0835C30.5023 43.1535 30.5583 43.2347 30.6003 43.3215L31.2219 44.6207C31.2219 44.6207 31.2247 44.6291 31.2275 44.6319C31.2303 44.6347 31.2303 44.6403 31.2331 44.6431C31.4207 45.0715 31.2583 45.5811 30.8467 45.8107H30.8439L30.8467 45.8191Z" fill="#191D2E"/>
<path id="Vector_12" d="M30.4274 43.0894L15.369 51.677L13.8262 50.5654C13.8738 50.3162 14.0222 50.0866 14.2546 49.9494C14.2602 49.9438 14.2658 49.941 14.2742 49.9354L15.6742 49.1402L16.0634 48.9162C16.335 49.521 16.4862 49.8542 16.4862 49.8542L19.107 48.303L23.629 45.6318L24.7266 44.9794L26.653 43.8426L27.703 43.2182C27.703 43.2182 27.591 42.9466 27.3838 42.4538L28.1202 42.0338C28.4338 41.8546 28.8286 41.877 29.1198 42.0926L30.3154 42.983C30.3574 43.0138 30.3938 43.0446 30.4246 43.0838L30.4274 43.0894Z" fill="#343A49"/>
<path id="Vector_13" d="M16.4083 53.8493C16.2767 53.8325 16.1479 53.7933 16.0303 53.7205C16.0275 53.7177 16.0247 53.7177 16.0219 53.7149L14.9691 53.0457C14.8179 52.9505 14.6975 52.8133 14.6219 52.6509L13.9023 51.1249C13.9023 51.1249 13.8995 51.1193 13.8995 51.1165C13.8183 50.9373 13.7959 50.7441 13.8295 50.5649L15.3723 51.6765L16.4111 53.8493H16.4083Z" fill="#292E3F"/>
<path id="Vector_14" d="M33.3845 63.3056C33.3873 63.4232 33.3481 63.552 33.2809 63.6864C33.0093 64.2016 32.2281 64.8064 31.2117 65.2292C30.2065 65.6464 29.2405 65.7724 28.6749 65.6044C28.5629 65.5736 28.4649 65.526 28.3865 65.4672H28.3837C28.3585 65.4476 28.3333 65.4252 28.3137 65.4056C28.3053 65.4168 28.2941 65.4336 28.2885 65.4448L28.0505 64.9716L28.0085 64.8904C29.8089 64.588 30.9233 63.5632 31.4777 62.5776C31.4749 62.5776 31.4721 62.5776 31.4721 62.5776C31.6765 62.1016 31.6037 61.5276 31.5029 60.9927C31.2929 59.8755 31.3125 59.2175 30.2793 59.4975C30.4081 59.3267 30.5817 59.0215 30.5705 58.7947C30.5453 58.2935 30.3941 57.7027 30.3437 57.3023C30.2429 56.5211 29.9153 55.7063 29.3469 55.6363C28.6749 55.5579 28.1485 55.6979 28.1485 55.6979C28.9969 54.8915 28.8289 54.3483 28.7029 53.6539C28.6637 53.4355 28.6245 53.2479 28.5853 53.0855C28.5853 53.0855 28.5853 53.0771 28.5853 53.0743C28.5573 52.9623 28.5293 52.8615 28.4985 52.7747C28.3277 52.4191 27.9637 52.1951 27.6697 52.0747C27.5353 52.0439 27.3785 52.0187 27.1937 51.9907C27.1237 51.9795 27.0537 51.9655 26.9865 51.9459C26.2361 51.9515 25.2337 52.3435 23.7469 53.0043C23.1841 53.2563 22.6801 53.3571 22.2349 53.3599L21.2129 51.3187L21.5125 51.1479L23.3325 50.1091L23.9121 49.7787L24.0605 49.6947L26.3481 48.3899L26.5581 48.2695L26.7009 48.5831L27.4429 50.1959L27.8181 51.0163L27.8573 51.1031L27.8713 51.1339L27.8965 51.1899L28.1485 51.7359L28.6553 52.8419L32.1161 60.3851L32.6173 61.4744L32.6397 61.5276L32.6481 61.5415L32.9253 62.1463L33.3789 63.1376L33.3593 63.1488C33.3789 63.1992 33.3901 63.2496 33.3901 63.3056H33.3845Z" fill="#191D2E"/>
<path id="Vector_15" d="M29.2467 69.9018C28.6615 69.5658 28.1995 69.0702 27.9363 68.443C27.7515 68.0006 27.6871 67.5302 27.7291 67.0654C27.7291 67.1438 27.7459 67.2166 27.7739 67.2894C27.9335 67.6758 28.4711 67.8634 29.2159 67.8578C28.8127 68.6614 28.7763 69.4314 29.2467 69.9018Z" fill="#0F1119"/>
<path id="Vector_16" d="M33.4022 63.3081C33.4414 63.9353 33.321 64.4169 33.0522 64.7949C32.831 65.1225 32.5006 65.3745 32.0722 65.5817C30.857 66.1697 29.8434 66.7969 29.3114 67.6733C29.2806 67.7321 29.2442 67.7937 29.2134 67.8553C28.4714 67.8581 27.9338 67.6733 27.7714 67.2841C27.7434 67.2113 27.7266 67.1385 27.7266 67.0601V67.0545C27.7322 66.9733 27.7434 66.8865 27.7574 66.8053C27.833 66.3349 28.015 65.8701 28.2866 65.4389C28.2922 65.4277 28.3034 65.4109 28.3118 65.3969C28.3314 65.4193 28.3566 65.4417 28.3818 65.4613H28.3846C28.463 65.5201 28.561 65.5677 28.673 65.5985C29.2358 65.7665 30.2018 65.6405 31.2098 65.2205C32.2262 64.7977 33.0074 64.1957 33.2762 63.6777C33.3462 63.5433 33.3826 63.4145 33.3798 63.2969C33.3854 63.2969 33.3882 63.2997 33.3966 63.2997L33.4022 63.3081Z" fill="#292E3F"/>
<path id="Vector_17" d="M32.0596 67.1968C31.0124 67.628 29.9988 67.852 29.2148 67.8576C29.2456 67.7932 29.282 67.7344 29.3128 67.6756C29.8448 66.7992 30.8584 66.172 32.0736 65.584C32.502 65.3768 32.8324 65.1248 33.0508 64.7972C33.3196 64.4164 33.4372 63.9348 33.4008 63.3076C33.8264 63.3944 34.2212 63.554 34.5712 63.7696H34.5768C34.686 63.8368 34.7896 63.9068 34.8904 63.988C34.9772 64.058 35.0668 64.1336 35.1424 64.2148C35.1452 64.2176 35.148 64.2204 35.1508 64.2232C35.4784 65.0184 34.0924 66.3484 32.054 67.194H32.0568L32.0596 67.1968Z" fill="#343A49"/>
<path id="Vector_18" d="M34.7644 69.0152H34.7616C34.3332 69.4324 33.8068 69.7796 33.202 70.0316C32.5552 70.3004 31.8888 70.4236 31.2588 70.4208H31.2532C30.5196 70.4152 29.828 70.236 29.254 69.9056C29.254 69.9056 29.254 69.9056 29.2484 69.9028C28.7752 69.4296 28.8144 68.6596 29.2176 67.8588C30.0016 67.8532 31.0152 67.6292 32.0624 67.198C34.1008 66.3524 35.4868 65.0252 35.1592 64.23C35.4364 64.5016 35.652 64.818 35.8032 65.182C36.3352 66.4616 35.8788 67.9484 34.7672 69.0152H34.7644Z" fill="#191D2E"/>
<path id="Vector_19" d="M26.6497 43.8457L24.7233 44.9825L23.6257 45.6349C23.5277 45.4053 23.4073 45.1281 23.2729 44.8089C20.3021 37.8509 8.79688 10.8813 8.62048 10.5313L3.54688 7.61646L3.81848 4.38525L11.8853 8.91846C12.0645 9.28246 23.8357 37.1845 26.3193 43.0673C26.4621 43.4005 26.5713 43.6665 26.6497 43.8485V43.8457Z" fill="#A3A7AD"/>
<path id="Vector_20" d="M27.7032 43.2209L26.6532 43.8453C26.5748 43.6633 26.4656 43.3973 26.3228 43.0641C23.8392 37.1813 12.068 9.27921 11.8888 8.91521L3.8192 4.37921L3.1248 12.7008C3.3096 13.0676 16.2596 41.9525 18.7068 47.4069C18.8608 47.7457 19.012 48.0873 19.1072 48.3001L16.4864 49.8513C16.4864 49.8513 16.3352 49.5181 16.0636 48.9133C13.51 43.2265 0.1876 13.524 0 13.146L1.4308 0L12.306 6.22441C12.4908 6.59681 25.2 37.1981 27.384 42.4565C27.5884 42.9493 27.7032 43.2209 27.7032 43.2209Z" fill="#EFEFEF"/>
<path id="Vector_21" d="M23.6266 45.6317L19.1046 48.3029C19.0094 48.0901 18.8582 47.7485 18.7042 47.4097C16.257 41.9525 3.3098 13.0705 3.125 12.7037L3.5506 7.61328L8.6242 10.5281C8.8006 10.8809 20.3086 37.8505 23.2766 44.8057C23.411 45.1277 23.5314 45.4021 23.6294 45.6317H23.6266Z" fill="#E0E0E0"/>
</g>
<path id="Vector_22" d="M32.3032 49.1374C31.2868 50.5598 30.7268 52.2454 30.1388 53.6566C29.6264 54.8886 25.0876 53.9506 25.4768 52.475C26.2636 49.4902 27.308 48.2274 27.308 48.2274C27.308 48.2274 33.3224 47.7122 32.306 49.1374H32.3032Z" fill="#FFD868"/>
</g>
<g id="Group_4">
<path id="Vector_23" d="M72.4884 79.8507C72.4688 79.9123 72.4408 79.9739 72.396 80.0299C72.3792 80.0495 72.3652 80.0635 72.3456 80.0803C72.3204 80.1027 72.2952 80.1223 72.2672 80.1391L71.5476 80.5927L63.464 85.6635C60.804 84.6275 52.334 79.9571 52.334 79.9571L59.0092 75.7683L63.1504 73.5283L65.7516 75.1635L70.2036 77.9663H70.2064L72.27 79.2655C72.3792 79.3355 72.4492 79.4335 72.4828 79.5427V79.8479H72.4856L72.4884 79.8507Z" fill="#E74D13"/>
<path id="Vector_24" d="M63.4652 85.6641L60.0688 87.7949C59.7328 88.0049 59.296 87.7753 59.2792 87.3805V85.4177C59.268 85.1293 59.0188 84.9053 58.7276 84.9249L54.8608 85.1713C54.5864 85.1881 54.3484 84.9893 54.3176 84.7233V84.6029C54.3176 84.5749 54.3176 84.5468 54.312 84.5216L54.3176 82.8221C54.326 82.5281 54.0936 82.2873 53.8024 82.2873H50.4144C50.154 82.2873 49.9748 82.1137 49.916 81.9037V81.6237C49.9496 81.5145 50.0224 81.4108 50.14 81.338L52.3352 79.9604C52.3352 79.9604 60.8052 84.6337 63.4652 85.6697V85.6641Z" fill="#F7762E"/>
<path id="Vector_25" d="M59.2766 85.4167V87.1975C59.2654 86.9091 59.0162 86.6851 58.725 86.7047L55.1102 86.9511C54.5278 86.9511 54.3066 86.6431 54.3066 86.1783L54.3122 84.7251C54.343 84.9883 54.5838 85.1871 54.8554 85.1731L58.7222 84.9267C59.0106 84.9071 59.2598 85.1311 59.2738 85.4195L59.2766 85.4167Z" fill="#E74D13"/>
<path id="Vector_26" d="M54.3165 82.8217L54.3109 84.5213C54.2801 84.2665 54.0645 84.0677 53.8013 84.0677H50.4133C50.1473 84.0677 49.9597 83.8829 49.9121 83.6645V81.9033C49.9709 82.1133 50.1501 82.2869 50.4133 82.2869H53.8013C54.0925 82.2869 54.3277 82.5305 54.3165 82.8217Z" fill="#E74D13"/>
<path id="Vector_27" d="M72.5057 79.8511V81.5619C72.4861 81.6991 72.4076 81.8363 72.2704 81.9203L65.15 86.3891L61.0816 88.9427C60.4292 89.3515 59.2812 89.0911 59.2812 88.4023V87.3803C59.2981 87.7779 59.7348 88.0075 60.0708 87.7947L63.4645 85.6639L71.5481 80.5931L72.2677 80.1395C72.2957 80.1199 72.3209 80.1003 72.3461 80.0807C72.3657 80.0639 72.3797 80.0499 72.3965 80.0303C72.4469 79.9799 72.4861 79.9183 72.5029 79.8511H72.5057Z" fill="#D63E0F"/>
</g>
<path id="Vector_28" d="M68.8377 74.1055V77.4347C68.8377 78.6891 67.1045 79.7055 64.9681 79.7055C62.8317 79.7055 61.0957 78.6891 61.0957 77.4347V75.1639L68.8405 74.1083L68.8377 74.1055Z" fill="#D84C21"/>
<path id="Vector_29" d="M45.148 77.2748L41.354 79.6576C41.018 79.8676 40.5812 79.638 40.5644 79.2432V77.2804C40.5532 76.992 40.304 76.768 40.0128 76.7848L36.146 77.0312C35.8716 77.048 35.6336 76.8492 35.6028 76.5832V76.4628C35.6028 76.4348 35.6028 76.4068 35.5972 76.3816L35.6028 74.682C35.6112 74.388 35.3788 74.1472 35.0876 74.1472H31.6996C31.4392 74.1472 31.26 73.9736 31.2012 73.7636V73.4836C31.2348 73.3744 31.3076 73.2708 31.4252 73.198L38.4896 68.7656C38.4896 68.7656 42.4012 74.0996 45.1508 77.2776L45.148 77.2748Z" fill="#F7762E"/>
<path id="Vector_30" d="M53.7754 71.7151C53.7586 71.7767 53.7278 71.8383 53.683 71.8943C53.6662 71.9139 53.6522 71.9279 53.6326 71.9447C53.6074 71.9671 53.5822 71.9867 53.5542 72.0035L52.8346 72.4571L45.1514 77.2787C42.4018 74.1007 38.4902 68.7667 38.4902 68.7667L40.2962 67.6355L44.4374 65.3955L47.0386 67.0307L51.4906 69.8335L53.5542 71.1327C53.6634 71.2027 53.7334 71.3007 53.767 71.4099V71.7151H53.7726H53.7754Z" fill="#E74D13"/>
<path id="Vector_31" d="M40.5657 77.2805V79.0613C40.5545 78.7729 40.3053 78.5489 40.0141 78.5685L36.3993 78.8149C35.8197 78.8149 35.5957 78.5069 35.5957 78.0421L35.6013 76.5889C35.6321 76.8521 35.8729 77.0509 36.1445 77.0369L40.0113 76.7905C40.2997 76.7709 40.5489 76.9949 40.5629 77.2861L40.5657 77.2805Z" fill="#E74D13"/>
<path id="Vector_32" d="M35.6036 74.6821L35.598 76.3817C35.5672 76.1269 35.3516 75.9281 35.0884 75.9281H31.7004C31.4316 75.9281 31.2468 75.7433 31.1992 75.5249V73.7637C31.258 73.9737 31.4372 74.1473 31.7004 74.1473H35.0884C35.3796 74.1473 35.6148 74.3909 35.6036 74.6821Z" fill="#E74D13"/>
<path id="Vector_33" d="M53.7928 71.7142V73.425C53.7732 73.5622 53.6948 73.6994 53.5576 73.7834L46.1796 78.4146L42.3688 80.8058C41.7164 81.2146 40.5684 80.9542 40.5684 80.2654V79.2434C40.5852 79.641 41.022 79.8706 41.358 79.6578L45.152 77.275L52.8352 72.4534L53.5548 71.9998C53.5828 71.9802 53.608 71.9606 53.6332 71.941C53.6528 71.9242 53.6668 71.9102 53.6836 71.8906C53.734 71.8402 53.7732 71.7786 53.79 71.7114L53.7928 71.7142Z" fill="#D63E0F"/>
<path id="Vector_34" d="M64.8102 5.85518C61.7246 4.37958 58.247 3.55078 54.565 3.55078C48.1082 3.55078 42.2702 6.10159 38.073 10.2176C38.0702 10.2204 38.0674 10.2232 38.0646 10.2288C34.0298 14.1796 31.5154 19.5864 31.4258 25.556C31.9886 28.1908 33.0162 30.638 34.4078 32.7968C34.6626 33.1888 34.9258 33.5696 35.203 33.9448C36.379 35.5296 37.7678 36.9352 39.3218 38.1056C39.4926 38.2344 39.6606 38.3576 39.8342 38.4808C39.8538 38.492 39.8706 38.5088 39.8902 38.5228C40.1002 38.6712 40.313 38.814 40.5286 38.954C40.8198 39.1388 41.1166 39.318 41.419 39.4888C41.573 39.5812 41.7298 39.6652 41.8922 39.7492C43.2138 40.4576 44.6194 41.0148 46.0922 41.3928C46.9322 41.6084 47.7946 41.7708 48.6682 41.8716C48.7354 41.8772 48.797 41.8884 48.8642 41.8912C49.5026 41.9612 50.1522 41.9948 50.8046 41.9948C52.1626 41.9948 53.4926 41.8492 54.7722 41.5692C55.8894 41.3312 56.9758 40.9896 58.0118 40.5556C58.9778 40.158 59.9018 39.6848 60.7866 39.136C63.2898 37.5848 65.4486 35.4708 67.1006 32.9536C67.1566 32.8668 67.2182 32.7772 67.2686 32.6904C67.3582 32.5588 67.4422 32.4244 67.5206 32.2872C67.8538 31.744 68.1618 31.1784 68.4446 30.6016C68.9066 29.6608 69.3014 28.678 69.629 27.6616C70.3094 25.5252 70.679 23.2376 70.679 20.8576C70.679 14.9916 68.4334 9.68279 64.8046 5.85518H64.8102ZM44.1882 7.77039C46.1734 6.97519 48.1418 7.22719 48.587 8.33319C49.0294 9.44199 47.7806 10.982 45.7954 11.78C43.8102 12.5752 41.839 12.3288 41.3966 11.22C40.9542 10.1112 42.203 8.57119 44.1882 7.77039Z" fill="#FFC54D"/>
<path id="Vector_35" d="M45.7984 11.7798C43.8132 12.575 41.842 12.3286 41.3996 11.2198C40.9572 10.111 42.206 8.57101 44.1912 7.77021C46.1764 6.97501 48.142 7.22701 48.59 8.33301C49.0352 9.44181 47.7836 10.9818 45.7984 11.7798Z" fill="#FFD868"/>
<path id="Vector_36" d="M40.5311 38.9548C40.0943 39.3104 39.6743 39.6828 39.2683 40.0664C38.8035 40.5032 38.3555 40.9568 37.9299 41.4216C37.7759 41.2704 37.6219 41.1164 37.4735 40.9568C37.3615 40.8392 37.2495 40.7244 37.1431 40.604C33.5815 36.6784 31.4199 31.5264 31.4199 25.8928C31.4199 25.7836 31.4199 25.6688 31.4227 25.5596C31.9855 28.1944 33.0103 30.6416 34.4047 32.8004C35.7347 34.864 37.4007 36.6644 39.3187 38.1092C39.4895 38.238 39.6575 38.364 39.8311 38.4844C39.8507 38.4956 39.8675 38.5124 39.8871 38.5264C40.0971 38.6748 40.3099 38.8204 40.5255 38.9576L40.5311 38.9548Z" fill="#FFA115"/>
<path id="Vector_37" d="M72.7261 42.8495C72.1325 46.0303 69.8365 48.7771 66.5633 50.5831C66.3673 50.6923 66.1713 50.7959 65.9697 50.8967C65.6981 51.0311 65.4181 51.1599 65.1353 51.2831H65.1325C64.4661 51.5715 63.7689 51.8263 63.0465 52.0419C62.6209 52.1679 62.1869 52.2771 61.7445 52.3779C60.2017 52.7167 58.5581 52.8875 56.8501 52.8511C55.7469 52.8259 54.6717 52.7195 53.6329 52.5403C52.5241 52.3443 51.4657 52.0643 50.4605 51.7059C50.4353 51.6975 50.4101 51.6891 50.3877 51.6807C48.0665 50.8435 46.0589 49.6003 44.5217 48.0771C44.1297 47.6879 43.7657 47.2791 43.4353 46.8535C43.1637 46.5007 42.9173 46.1395 42.6933 45.7643C42.3069 45.1203 41.9905 44.4427 41.7637 43.7455C41.7413 43.6867 41.7189 43.6223 41.7021 43.5607C41.5425 43.0259 41.4249 42.4771 41.3633 41.9227C42.0045 42.4267 42.6765 42.8971 43.3709 43.3283C43.4885 43.4039 43.6061 43.4767 43.7265 43.5495C43.8161 43.6839 43.9141 43.8239 44.0121 43.9555C44.0989 44.0759 44.1885 44.1935 44.2837 44.3111C44.3089 44.3447 44.3341 44.3783 44.3649 44.4119C44.4321 44.4987 44.4993 44.5855 44.5721 44.6695C44.6253 44.7311 44.6785 44.7983 44.7345 44.8599C44.8073 44.9439 44.8801 45.0307 44.9557 45.1119C44.9725 45.1287 44.9865 45.1455 45.0033 45.1623C45.1125 45.2855 45.2301 45.4087 45.3477 45.5263C45.4373 45.6187 45.5241 45.7055 45.6165 45.7951C45.6781 45.8595 45.7425 45.9211 45.8097 45.9771C45.9133 46.0807 46.0197 46.1787 46.1317 46.2739C46.2493 46.3803 46.3669 46.4811 46.4901 46.5819C46.5601 46.6407 46.6245 46.6995 46.6973 46.7527C46.8149 46.8479 46.9297 46.9375 47.0473 47.0271C47.2153 47.1531 47.3805 47.2763 47.5541 47.3967C47.7249 47.5171 47.9013 47.6319 48.0777 47.7467C48.4305 47.9735 48.7945 48.1863 49.1697 48.3851C49.3125 48.4607 49.4553 48.5363 49.6037 48.6063C49.6709 48.6399 49.7381 48.6735 49.8053 48.7043C49.9761 48.7855 50.1441 48.8639 50.3177 48.9367C50.5137 49.0207 50.7097 49.1047 50.9113 49.1775C51.0597 49.2335 51.2109 49.2895 51.3621 49.3427C51.3649 49.3427 51.3705 49.3483 51.3789 49.3483C51.4965 49.3931 51.6113 49.4295 51.7289 49.4659C51.8353 49.5051 51.9417 49.5359 52.0509 49.5667C52.2637 49.6339 52.4821 49.6927 52.6949 49.7459C52.7621 49.7655 52.8265 49.7795 52.8937 49.7963C52.9609 49.8159 53.0253 49.8271 53.0925 49.8439C53.1989 49.8691 53.3053 49.8915 53.4145 49.9139C53.4425 49.9195 53.4677 49.9251 53.4929 49.9307C53.6497 49.9643 53.8121 49.9951 53.9689 50.0203C54.1117 50.0455 54.2545 50.0707 54.3973 50.0903C54.4169 50.0931 54.4309 50.0959 54.4477 50.0959H54.4533C54.6549 50.1267 54.8593 50.1519 55.0637 50.1715C55.1729 50.1827 55.2877 50.1967 55.3997 50.2023C55.6237 50.2219 55.8505 50.2359 56.0773 50.2471H56.1109C56.3265 50.2555 56.5449 50.2611 56.7633 50.2611C56.9425 50.2611 57.1217 50.2583 57.2981 50.2527C57.3457 50.2527 57.3933 50.2499 57.4409 50.2471C57.7629 50.2387 58.0793 50.2135 58.3929 50.1799C58.4461 50.1799 58.4993 50.1715 58.5525 50.1631C58.6589 50.1547 58.7625 50.1407 58.8633 50.1267H58.8773C58.9109 50.1239 58.9445 50.1183 58.9781 50.1155C59.1069 50.0959 59.2357 50.0763 59.3617 50.0567C59.4177 50.0511 59.4793 50.0399 59.5353 50.0287C59.6249 50.0175 59.7117 49.9979 59.7985 49.9811C59.8881 49.9699 59.9749 49.9503 60.0589 49.9307C60.0981 49.9223 60.1345 49.9139 60.1709 49.9083C60.2829 49.8859 60.3977 49.8607 60.5069 49.8327C60.6385 49.8047 60.7701 49.7711 60.9045 49.7347C61.0361 49.7011 61.1649 49.6647 61.2937 49.6283C61.5569 49.5527 61.8173 49.4715 62.0749 49.3791C62.1533 49.3539 62.2317 49.3259 62.3101 49.2979C62.4305 49.2559 62.5537 49.2111 62.6685 49.1635C62.7161 49.1467 62.7609 49.1299 62.8029 49.1103C63.1165 48.9871 63.4273 48.8527 63.7269 48.7071C63.7857 48.6791 63.8473 48.6511 63.9061 48.6175C64.0181 48.5615 64.1329 48.5055 64.2421 48.4467C64.3597 48.3879 64.4745 48.3235 64.5893 48.2619C64.6341 48.2367 64.6733 48.2143 64.7181 48.1891C64.8441 48.1163 64.9701 48.0435 65.0933 47.9679C65.1997 47.9063 65.3033 47.8419 65.4041 47.7719C65.4489 47.7495 65.4881 47.7215 65.5329 47.6907C65.5777 47.6655 65.6225 47.6347 65.6617 47.6067C65.6785 47.6011 65.6953 47.5871 65.7121 47.5759C65.7849 47.5283 65.8605 47.4779 65.9333 47.4247C65.9445 47.4191 65.9557 47.4135 65.9669 47.3995C66.0229 47.3659 66.0789 47.3239 66.1377 47.2791C66.2329 47.2119 66.3281 47.1419 66.4233 47.0691C66.4961 47.0131 66.5689 46.9599 66.6417 46.9011C66.8517 46.7387 67.0533 46.5707 67.2549 46.3943C67.2773 46.3747 67.3025 46.3551 67.3249 46.3355C67.4313 46.2403 67.5377 46.1451 67.6469 46.0443C67.6805 46.0135 67.7197 45.9799 67.7533 45.9435C67.7757 45.9239 67.7981 45.9071 67.8149 45.8847C67.9465 45.7587 68.0725 45.6327 68.1985 45.5011C68.3553 45.3415 68.5065 45.1763 68.6521 45.0111C68.7837 44.8655 68.9097 44.7143 69.0301 44.5631C69.0805 44.5071 69.1281 44.4455 69.1729 44.3867C69.2289 44.3195 69.2793 44.2523 69.3297 44.1851C69.3689 44.1375 69.4053 44.0871 69.4417 44.0367C69.4893 43.9723 69.5341 43.9135 69.5733 43.8547C69.6237 43.7847 69.6741 43.7175 69.7245 43.6447C70.1165 43.0763 70.4693 42.4771 70.7773 41.8555H70.7801C71.4353 42.1635 72.0849 42.4995 72.7289 42.8663L72.7261 42.8495Z" fill="#FFA115"/>
<path id="Vector_38" d="M77.7099 25.8927C77.7099 28.6675 77.1835 31.3275 76.2259 33.7775C75.9487 34.4943 75.6323 35.1971 75.2767 35.8747C75.2291 35.9727 75.1787 36.0679 75.1255 36.1631C74.4535 37.4175 73.6583 38.6047 72.7595 39.7023C72.1491 40.4555 71.4883 41.1667 70.7799 41.8331C70.7799 41.8331 70.7799 41.8331 70.7771 41.8359C70.7771 41.8359 70.7771 41.8387 70.7743 41.8387C70.6259 41.9563 70.4775 42.0711 70.3319 42.1831C70.1219 42.3427 69.9063 42.4967 69.6907 42.6479C69.5423 42.7515 69.3939 42.8551 69.2427 42.9559C68.8619 43.2107 68.4727 43.4571 68.0751 43.6867C67.9547 43.7595 67.8371 43.8295 67.7139 43.8939C67.5011 44.0171 67.2827 44.1319 67.0643 44.2467C66.8823 44.3447 66.6947 44.4399 66.5099 44.5267C66.3307 44.6163 66.1543 44.7003 65.9723 44.7815C65.7987 44.8599 65.6251 44.9383 65.4515 45.0139C65.2863 45.0867 65.1239 45.1511 64.9587 45.2183C64.8775 45.2519 64.7963 45.2855 64.7095 45.3163C64.6031 45.3611 64.4967 45.4003 64.3875 45.4395C64.2083 45.5067 64.0291 45.5711 63.8471 45.6355C63.6651 45.6971 63.4831 45.7587 63.2983 45.8175C63.1163 45.8735 62.9287 45.9295 62.7439 45.9855C62.4835 46.0639 62.2175 46.1367 61.9543 46.2039C61.7191 46.2627 61.4783 46.3215 61.2403 46.3747C61.1787 46.3915 61.1115 46.4027 61.0443 46.4195C60.9323 46.4419 60.8147 46.4671 60.6971 46.4895C60.6383 46.5007 60.5767 46.5147 60.5151 46.5231C60.3023 46.5651 60.0839 46.6015 59.8655 46.6351C59.8207 46.6435 59.7759 46.6519 59.7339 46.6575C59.5295 46.6883 59.3223 46.7163 59.1151 46.7471C58.9695 46.7667 58.8267 46.7835 58.6811 46.7975C58.5355 46.8171 58.3927 46.8283 58.2471 46.8423C57.9111 46.8731 57.5695 46.8983 57.2279 46.9151C57.0543 46.9235 56.8807 46.9319 56.7071 46.9347C56.6119 46.9403 56.5223 46.9403 56.4271 46.9403C56.2899 46.9459 56.1527 46.9459 56.0155 46.9459C55.8027 46.9459 55.5871 46.9431 55.3771 46.9375C55.3099 46.9375 55.2483 46.9347 55.1839 46.9319C55.0383 46.9291 54.8983 46.9235 54.7555 46.9123C54.7471 46.9151 54.7443 46.9151 54.7331 46.9123H54.7079C54.6239 46.9067 54.5399 46.9039 54.4559 46.8955C54.1031 46.8731 53.7531 46.8451 53.4087 46.8031C53.2771 46.7919 53.1455 46.7751 53.0111 46.7555C52.9915 46.7555 52.9775 46.7555 52.9607 46.7499C52.8879 46.7443 52.8207 46.7331 52.7507 46.7219C52.7339 46.7219 52.7199 46.7219 52.7031 46.7163C52.5519 46.6967 52.4007 46.6743 52.2495 46.6491C52.1347 46.6323 52.0227 46.6155 51.9107 46.5959C51.8183 46.5791 51.7287 46.5651 51.6363 46.5455C51.5187 46.5259 51.4067 46.5035 51.2891 46.4783C51.2051 46.4615 51.1183 46.4475 51.0315 46.4251C51.0287 46.4279 51.0259 46.4251 51.0175 46.4223C50.8187 46.3803 50.6199 46.3383 50.4239 46.2907C50.2251 46.2431 50.0319 46.1927 49.8359 46.1423C49.6623 46.0975 49.4943 46.0499 49.3235 45.9995C49.0659 45.9239 48.8139 45.8455 48.5619 45.7643C48.3799 45.7055 48.1979 45.6439 48.0187 45.5795C47.8479 45.5207 47.6827 45.4591 47.5147 45.3947C47.3523 45.3303 47.1871 45.2687 47.0275 45.2015C47.0023 45.1931 46.9743 45.1819 46.9491 45.1679C46.9435 45.1707 46.9407 45.1679 46.9323 45.1623C46.7615 45.0923 46.5935 45.0195 46.4227 44.9467H46.4199C46.3415 44.9159 46.2631 44.8795 46.1875 44.8431C46.1091 44.8095 46.0307 44.7731 45.9523 44.7367C45.9439 44.7367 45.9355 44.7311 45.9299 44.7283C45.7787 44.6583 45.6331 44.5911 45.4875 44.5183C45.2859 44.4203 45.0871 44.3195 44.8883 44.2159C44.6895 44.1123 44.4963 44.0059 44.3031 43.8939C44.1071 43.7847 43.9167 43.6727 43.7263 43.5579C42.9031 43.0651 42.1163 42.5191 41.3631 41.9311C40.6267 41.3543 39.9295 40.7327 39.2715 40.0747C39.6775 39.6911 40.0947 39.3187 40.5343 38.9631C40.8255 39.1479 41.1223 39.3271 41.4247 39.4979C41.5787 39.5903 41.7355 39.6743 41.8951 39.7583C43.2167 40.4667 44.6223 41.0239 46.0951 41.4019C46.9351 41.6203 47.7975 41.7799 48.6711 41.8807C49.3739 41.9619 50.0879 42.0039 50.8075 42.0039C53.3499 42.0039 55.7831 41.4943 58.0175 40.5647C58.9835 40.1671 59.9075 39.6939 60.7923 39.1451C63.2955 37.5939 65.4543 35.4799 67.1063 32.9627C67.1623 32.8759 67.2239 32.7863 67.2743 32.6995C67.3667 32.5679 67.4479 32.4335 67.5263 32.2963C67.8595 31.7531 68.1675 31.1875 68.4503 30.6107C68.9123 29.6699 69.3071 28.6871 69.6347 27.6707C70.3151 25.5343 70.6847 23.2467 70.6847 20.8667C70.6847 15.0007 68.4391 9.69186 64.8103 5.86426C72.4571 9.50986 77.7099 17.1119 77.7099 25.9011H77.7071L77.7099 25.8927Z" fill="#FFA115"/>
<path id="Vector_39" d="M82.3228 43.9774C82.278 45.2402 82.0428 49.233 80.7324 49.191C79.6208 47.9786 78.3888 46.8278 77.0448 45.7582C76.4568 45.2906 75.8576 44.8454 75.25 44.4282C76.4512 43.787 77.826 43.4258 79.2848 43.4258C80.3544 43.4258 81.3792 43.6246 82.3256 43.9802H82.3228V43.9774Z" fill="#FFC54D"/>
<path id="Vector_40" d="M84.6348 54.2484C84.6348 54.3156 84.6348 54.38 84.632 54.4444C83.5652 52.616 82.2632 50.8464 80.7344 49.1916C82.042 49.2336 82.28 45.238 82.3248 43.978C82.3276 43.978 82.3304 43.9808 82.3332 43.9808C83.8172 46.918 84.632 50.3536 84.632 54.2484H84.6348Z" fill="#FFA115"/>
<path id="Vector_41" d="M70.7718 41.8387C68.5402 46.3915 63.8614 49.5051 58.8662 50.1127C57.9534 50.2303 57.021 50.2723 56.0998 50.2359C56.0998 50.2359 56.097 50.2331 56.0942 50.2359C51.2334 50.0679 46.4622 47.5955 43.7266 43.5467C44.7514 44.1711 45.8406 44.7115 46.9494 45.1595C46.9746 45.1763 47.0054 45.1875 47.0306 45.1931C48.3242 45.7223 49.671 46.1339 51.0374 46.4167C57.8666 47.8867 65.309 46.2123 70.7746 41.8359L70.7718 41.8387Z" fill="#FF8515"/>
<path id="Vector_42" d="M84.6272 54.4409C83.5604 52.6125 82.2584 50.8457 80.7296 49.1909C79.618 47.9785 78.386 46.8277 77.042 45.7581C76.454 45.2905 75.8548 44.8453 75.2472 44.4281C74.4184 43.8541 73.5756 43.3305 72.7216 42.8517C72.1728 45.7805 70.1848 48.3397 67.3148 50.1373C66.4636 50.6049 64.064 51.8285 61.1128 52.5117C59.7548 52.7665 58.324 52.8897 56.8484 52.8561C55.7452 52.8309 54.67 52.7245 53.6312 52.5453C52.5252 52.3493 51.464 52.0693 50.4588 51.7109C50.4336 51.7025 50.4084 51.6941 50.386 51.6857C48.0648 50.8485 46.0572 49.6053 44.52 48.0821C44.1252 47.6929 43.764 47.2841 43.4336 46.8585C43.162 46.5057 42.9156 46.1445 42.6916 45.7693C42.3052 45.1253 41.9888 44.4477 41.7648 43.7505C41.7424 43.6917 41.72 43.6273 41.7004 43.5657C41.5408 43.0309 41.4232 42.4849 41.3616 41.9277C40.6252 41.3509 39.928 40.7293 39.27 40.0713C38.8052 40.5081 38.3572 40.9617 37.9316 41.4265C37.8728 41.4881 37.814 41.5553 37.7552 41.6169C37.6628 41.7205 37.5704 41.8269 37.4808 41.9361C37.3464 42.0929 37.2148 42.2497 37.0804 42.4121C36.9544 42.5661 36.8312 42.7229 36.708 42.8797C36.5988 43.0225 36.4868 43.1653 36.3804 43.3109C36.2992 43.4201 36.2208 43.5349 36.1424 43.6469C35.7196 44.2181 35.0924 45.2681 34.7536 45.8925L34.748 45.8981C34.3364 46.6709 33.9724 47.4717 33.6728 48.2893C33.67 48.3033 33.6672 48.3201 33.6616 48.3341C33.6644 48.3201 33.6672 48.3033 33.67 48.2893C33.6532 48.3285 33.642 48.3677 33.6252 48.4069C33.6252 48.4097 33.6224 48.4125 33.6224 48.4125C32.914 50.3585 32.5332 52.4081 32.5332 54.5305C32.5332 56.1237 32.7264 57.6749 33.0932 59.1673C35.0784 67.2621 42.1512 73.7413 51.2988 76.0037C53.578 76.5665 55.986 76.8689 58.4752 76.8689C70.8204 76.8689 81.3036 69.2389 83.9692 59.2289C84.0028 59.1029 84.0364 58.9769 84.0672 58.8509C84.196 58.3357 84.2996 57.8093 84.3864 57.2801C84.5376 56.3477 84.6188 55.4013 84.6244 54.4409H84.6216H84.6272Z" fill="#FFA115"/>
<path id="Vector_43" d="M66.9701 50.3498C66.9421 51.7471 67.7457 59.3575 63.4645 64.3107C59.2785 69.1519 51.0549 71.0139 42.5961 67.3935C38.8021 65.7695 34.4397 60.0967 33.4905 54.7151C33.4625 54.6899 33.2441 53.3431 33.2441 51.9458C33.2441 49.1206 33.7705 47.7374 34.7505 45.895L34.7561 45.8894C35.9181 43.7446 37.3209 41.8938 39.2697 40.0654C39.9277 40.7234 40.6249 41.345 41.3613 41.9218C42.0417 47.9334 48.1205 51.915 54.8909 52.7018C57.5957 53.0183 62.4117 52.8558 66.9673 50.347L66.9701 50.3498Z" fill="#FFC54D"/>
<path id="Vector_44" d="M57.1397 38.1C55.5325 37.7864 54.2305 36.224 54.2305 34.6196V32.0268C54.2305 30.4196 55.5325 29.3864 57.1397 29.7168C58.7469 30.0472 60.0517 31.6124 60.0517 33.2056V35.7788C60.0517 37.3748 58.7497 38.4136 57.1397 38.0972V38.1Z" fill="#191D2E"/>
<path id="Vector_45" d="M38.4446 31.0282C36.9774 30.7146 35.793 29.2698 35.793 27.8026V24.6973C35.793 23.2301 36.9802 22.3117 38.4446 22.6449C39.9118 22.9753 41.0962 24.4257 41.0962 25.879V28.9618C41.0962 30.415 39.909 31.3418 38.4446 31.0254V31.0282Z" fill="#191D2E"/>
<path id="Vector_46" d="M42.4843 26.5052L37.9203 20.2584C37.6935 19.9476 37.2567 19.8776 36.9431 20.1072L36.8843 20.1492C36.5735 20.376 36.5035 20.8128 36.7331 21.1264L41.2999 27.3732C41.5267 27.684 41.9635 27.754 42.2771 27.5244L42.3359 27.4824C42.6467 27.2556 42.7167 26.8188 42.4871 26.5052H42.4843Z" fill="#191D2E"/>
<path id="Vector_47" d="M52.9926 32.7407L60.6086 28.6499C60.9642 28.4595 61.0986 28.0143 60.9082 27.6559C60.7178 27.2975 60.2726 27.1631 59.9142 27.3535L52.2982 31.4443C51.9426 31.6347 51.8082 32.0799 51.9986 32.4383C52.189 32.7967 52.6342 32.9311 52.9926 32.7407Z" fill="#191D2E"/>
<g id="Group_5">
<path id="Vector_48" d="M65.2568 51.8215C65.2568 51.8215 65.5956 55.6043 62.8684 55.6603C62.8684 55.6603 62.1068 53.8963 54.1856 55.8283C54.1856 55.8283 48.9272 56.1055 47.7428 57.5195C47.4012 57.9283 47.2892 59.2107 47.3088 59.7987C47.446 63.5619 48.1292 63.9707 48.1292 63.9707C48.1292 63.9707 48.6192 68.4787 49.588 69.6547C49.8176 69.9347 51.184 69.5147 51.604 69.4279C51.604 69.4279 48.6948 62.8759 54.2388 60.7283C59.7856 58.5807 67.2868 60.9187 65.2568 51.8159V51.8215Z" fill="#FFA115"/>
<path id="Vector_49" d="M54.8502 56.7211C54.8502 56.7211 54.1166 56.8863 53.8338 56.9423C52.4786 57.2111 50.9583 57.3427 50.0007 57.9475L48.623 62.2595C48.623 62.2595 49.3175 64.4743 49.6283 65.2751L50.7538 68.3803C50.7538 68.3803 51.115 69.0383 51.7254 69.7271C51.7254 69.7271 53.957 72.0931 59.0978 70.1499C64.2358 68.2067 62.0015 58.8295 60.3775 57.8579C58.7535 56.8863 54.853 56.7183 54.853 56.7183L54.8502 56.7211Z" fill="#FF8515"/>
<path id="Vector_50" d="M73.2312 53.4531C73.2312 53.4531 77.2968 60.1647 72.6768 66.6915C69.1208 71.7148 63.4144 72.51 57.2012 71.5832C57.2012 71.5832 71.386 64.1239 73.2312 53.4531Z" fill="#FF8515"/>
<path id="Vector_51" d="M65.0826 51.2863C65.0826 51.2863 66.8438 55.2287 62.4282 58.2303C62.4282 58.2303 62.2098 56.3739 61.493 56.1415C60.6614 55.8727 59.1438 56.0267 57.2874 56.2647C56.1758 56.4075 54.9886 56.4663 54.7674 56.7687C53.947 57.8831 53.891 59.9103 54.4902 60.0531C55.263 60.2379 58.539 59.7199 58.539 59.7199C58.539 59.7199 55.4562 61.0303 54.885 61.0051C54.5882 60.9939 53.2414 60.7055 52.0122 60.2071L53.3562 59.9859C53.3562 59.9859 53.009 58.2891 53.8378 56.9367C53.8378 56.9367 49.4642 57.3847 48.7978 58.0847C48.3134 58.5943 48.3554 59.0535 48.5066 60.8595C48.613 62.1335 48.5598 62.3995 48.9014 62.9483C49.4698 63.8639 50.405 64.2195 51.3402 64.6563C52.5358 65.2135 53.7314 65.5467 54.3726 65.8463C54.3726 65.8463 52.673 65.9891 49.6322 65.2667C49.6322 65.2667 49.6658 65.9023 50.083 66.9803C50.5282 68.1256 50.6738 68.302 50.9062 68.4755C51.3206 68.7808 51.889 68.8031 52.6226 68.9319C53.3562 69.0607 54.213 69.1028 55.3918 69.2148C55.3918 69.2148 53.4626 69.632 51.7294 69.7188C51.7294 69.7188 51.8386 70.0408 52.1158 70.4412C52.5022 71.0012 52.5386 71.172 53.6446 71.2952C55.207 71.4716 57.6066 71.8524 61.4034 71.2C73.3706 69.1448 77.3858 57.3483 70.2122 47.6743C70.2122 47.6743 69.305 48.4247 67.807 49.5951C66.085 50.9419 65.0882 51.2779 65.0882 51.2779L65.0826 51.2863Z" fill="#FFC54D"/>
<path id="Vector_52" d="M53.3523 59.9916C53.3523 59.9916 53.0051 58.2948 53.8339 56.9424C53.8339 56.9424 49.4603 57.3904 48.7939 58.0904C48.3095 58.6 48.3515 59.0592 48.5027 60.8652C48.5111 60.9772 48.5195 61.0808 48.5279 61.176L54.6347 60.9744C54.1167 60.8876 53.0247 60.6188 52.0111 60.2072L53.3551 59.986L53.3523 59.9916Z" fill="#FFC54D"/>
<path id="Vector_53" d="M61.4937 56.1414C60.6621 55.8726 59.1445 56.0266 57.2881 56.2646C56.1765 56.4074 54.9893 56.4662 54.7681 56.7686C53.9477 57.883 53.8917 59.9102 54.4909 60.053C54.5973 60.0782 54.7541 60.0894 54.9417 60.0922L62.1041 56.8946C61.9613 56.539 61.7625 56.2254 61.4965 56.1386L61.4937 56.1414Z" fill="#FFC54D"/>
<path id="Vector_54" d="M50.073 65.4681C51.5794 65.8489 53.0074 66.4845 54.511 66.8597C54.399 66.5237 54.2758 66.1933 54.1526 65.8629C53.6122 65.8769 52.047 65.8489 49.625 65.2749C49.625 65.2749 49.6306 65.3645 49.6558 65.5325C49.765 65.4597 49.905 65.4261 50.0702 65.4681H50.073Z" fill="#FFC54D"/>
<path id="Vector_55" d="M70.3446 47.5259C70.3446 47.5259 67.4606 49.8667 67.3962 49.9143C67.8246 50.9699 68.085 55.0915 66.3686 58.8967C65.327 61.2067 64.9434 61.2739 61.8802 61.9543C60.7574 62.2035 57.1986 62.9847 54.9922 63.2899C55.6894 64.0179 56.451 66.0675 56.4818 68.9571C56.4902 69.8167 56.3894 70.6959 56.2802 71.5639C57.711 71.6703 59.5086 71.5527 61.3986 71.2111C65.5986 70.4523 69.135 68.7695 71.5766 65.1267C74.6062 60.6075 75.0458 54.2403 70.3446 47.5315V47.5259Z" fill="#FFA115"/>
</g>
<g id="Group_6">
<path id="Vector_56" d="M55.0416 38.7407V41.4203C55.0416 41.6807 54.868 41.9047 54.6188 41.9719L47.4004 44.4387L44.4772 45.4327L42.8056 46.0039C41.7444 46.3651 40.5824 46.2811 39.5828 45.7715L31.8324 41.8235L31.1044 41.4539C30.9028 41.3503 30.7908 41.1683 30.7712 40.9695C30.7656 40.9471 30.7656 40.9247 30.7656 40.9023V38.2339L45.3984 42.4479H45.4012L51.998 40.1687L54.8344 38.4971L55.0416 38.7435V38.7407Z" fill="#E74D13"/>
<path id="Vector_57" d="M54.7281 38.2616C55.1957 38.4968 55.1229 39.1884 54.6161 39.32L42.7721 43.352C42.6741 43.3716 42.5705 43.3828 42.4669 43.3828C42.2401 43.3828 42.0301 43.338 41.8341 43.2568L41.6717 43.1756L32.9385 38.7236L32.7201 38.6116C32.2469 38.3316 31.9277 37.8136 31.9277 37.2172V37.1892C32.0061 37.1164 32.0901 37.0548 32.1769 37.0044L32.2861 36.9456L32.3393 36.9204L39.4205 32.544L40.3445 31.9728L40.5349 31.872H40.5433C40.7225 31.7964 40.9129 31.7544 41.1173 31.7544C41.3217 31.7544 41.5093 31.7936 41.6829 31.8664L41.8705 31.9616L54.7225 38.2616H54.7281Z" fill="#F7762E"/>
<path id="Vector_58" d="M47.3995 41.7754L42.8047 43.3406C41.7435 43.7018 40.5815 43.6178 39.5819 43.111L31.1035 38.7934C30.6723 38.575 30.6499 37.9702 31.0587 37.7154L35.9335 34.7026L47.3995 41.7782V41.7754Z" fill="#F7762E"/>
<path id="Vector_59" d="M43.3731 43.1472L42.8047 43.3404C41.7435 43.7016 40.5815 43.6176 39.5819 43.1108L31.1035 38.7904C30.6723 38.572 30.6499 37.9672 31.0587 37.7124L31.4339 37.48C31.3863 37.746 31.5039 38.0344 31.7783 38.1744L40.7103 42.7244C41.5363 43.1472 42.4687 43.29 43.3731 43.1472Z" fill="#F99746"/>
<path id="Vector_60" d="M30.7712 40.2073H30.7656V40.1401C30.7656 40.1625 30.7656 40.1849 30.7712 40.2073Z" fill="#F7762E"/>
<path id="Vector_61" d="M49.4756 35.6878L36.9148 40.795L32.7988 38.7062L45.3456 33.6074L49.4756 35.6878Z" fill="#F99746"/>
<path id="Vector_62" d="M40.0838 35.8682C40.4478 35.8682 40.7418 35.5742 40.7418 35.2102C40.7418 34.8462 40.4478 34.5522 40.0838 34.5522C39.7198 34.5522 39.4258 34.8462 39.4258 35.2102C39.4258 35.5742 39.7198 35.8682 40.0838 35.8682Z" fill="#D63E0F"/>
<path id="Vector_63" d="M44.2146 38.3033C44.5786 38.3033 44.8726 38.0093 44.8726 37.6453C44.8726 37.2813 44.5786 36.9873 44.2146 36.9873C43.8506 36.9873 43.5566 37.2813 43.5566 37.6453C43.5566 38.0093 43.8506 38.3033 44.2146 38.3033Z" fill="#D63E0F"/>
</g>
</g>
</svg>
