<svg xmlns="http://www.w3.org/2000/svg" width="24" height="25" viewBox="0 0 24 25" fill="none">
    <rect y="0.5" width="24" height="24" rx="12" fill="black"/>
    <rect x="0.5" y="1" width="23" height="23" rx="11.5" stroke="white" stroke-opacity="0.1"/>
    <mask id="mask0_766_5141" style="mask-type:luminance" maskUnits="userSpaceOnUse" x="3" y="3" width="18" height="19">
        <path d="M12 21.5C16.9706 21.5 21 17.4706 21 12.5C21 7.52944 16.9706 3.5 12 3.5C7.02944 3.5 3 7.52944 3 12.5C3 17.4706 7.02944 21.5 12 21.5Z" fill="white"/>
    </mask>
    <g mask="url(#mask0_766_5141)">
        <path d="M3.5546 17.9807C2.67775 18.0602 2.02242 18.9721 2.02242 18.9721C2.02242 18.9721 1.75412 19.3139 1.49976 19.6144C1.42765 19.6996 1.40097 19.8278 1.47375 20.2358C1.58747 20.8733 2.04709 20.8498 2.04709 20.8498C2.04709 20.8498 2.01072 20.9062 2.15982 21.4723C2.33921 22.1534 2.63639 22.0766 3.06923 22.0801C3.10656 22.292 3.16029 22.429 3.22796 22.6265C3.32564 22.9115 3.74412 22.849 4.18375 22.8415C5.21024 22.8239 5.61139 22.0567 5.58406 21.7138C5.58017 21.665 5.73237 21.3129 5.78309 21.1216C6.05448 20.0976 4.43762 17.9005 3.5546 17.9807Z" fill="#C86335"/>
        <path d="M3.3947 20.7002C2.94838 20.6498 2.30652 20.6729 1.90133 20.6271C1.78444 20.6139 1.48681 20.1522 1.4541 20.1143C1.45968 20.1519 1.46611 20.1918 1.47392 20.2355C1.5734 20.7932 1.93756 20.845 2.02721 20.8493C2.03316 20.8486 2.03876 20.8478 2.04511 20.8474C2.50347 20.8203 3.09024 20.7539 3.3947 20.7002Z" fill="#DF7443"/>
        <path d="M7.891 16.0957C7.891 16.0957 6.34465 16.9844 5.73202 17.2111C5.16138 17.4223 4.08422 17.5969 3.38809 17.8955C2.46141 18.293 2.29641 18.5857 2.3457 18.7814C2.4132 19.0494 3.49511 18.6568 3.49511 18.6568C3.49511 18.6568 4.90376 18.9109 5.01538 19.4772C5.01538 19.4772 6.09076 20.6346 6.18521 21.4166C6.18521 21.4166 8.91396 19.8337 9.74059 17.3369L7.891 16.0957Z" fill="#DF7443"/>
        <path d="M9.74111 17.3359C7.69392 18.3559 7.22091 20.6809 5.462 22.1519C5.46119 22.1527 5.46039 22.1527 5.46039 22.1527C5.51867 22.0161 5.49847 21.8517 5.46946 21.6985C5.4088 21.3784 5.47479 21.1465 5.17854 21.2269C5.27585 21.1267 5.15795 20.8075 5.13616 20.6398C5.10707 20.4159 5.01383 20.1823 4.85044 20.1627C4.65761 20.1396 4.50715 20.1803 4.50715 20.1803C4.75011 19.9486 4.70201 19.7928 4.66561 19.5942C4.59462 19.2068 4.55452 19.1628 4.23273 19.1171C3.9339 19.0746 3.73896 18.7853 3.63062 18.7596C3.79255 18.7677 4.14046 18.891 4.58804 18.8936C4.61372 18.8936 4.6386 18.8928 4.66428 18.8928C4.78627 18.8896 4.91467 18.8767 5.04869 18.8511C5.39218 18.7852 5.31158 18.8904 5.56902 18.5056C6.30737 17.4017 8.44681 16.709 8.44681 16.709L9.74111 17.3359Z" fill="#2E3240"/>
        <path d="M4.69286 19.9492C4.69286 19.9492 4.41156 20.4955 3.15405 20.7375C3.15405 20.7375 4.26045 20.7628 4.75013 20.1566L4.69286 19.9492Z" fill="#782503"/>
        <path d="M5.11864 21.2703C5.11864 21.2703 4.9242 21.8494 3.79102 22.0183C3.79102 22.0183 4.99282 22.052 5.38049 21.209L5.11864 21.2703Z" fill="#782503"/>
        <path d="M9.74137 17.3358C7.82893 18.2884 7.29043 20.3798 5.7937 21.8508C5.68857 21.9544 5.57782 22.0547 5.46226 22.1518C5.46145 22.1526 5.46065 22.1526 5.46065 22.1526C5.51924 22.0162 5.49837 21.8516 5.46947 21.6984C5.40929 21.3781 5.45849 21.1494 5.16235 21.2297C5.28092 21.1242 5.15809 20.8075 5.13642 20.6398C5.10753 20.4159 5.01363 20.1824 4.85072 20.1623C4.65811 20.1398 4.50723 20.18 4.50723 20.18C4.7504 19.9488 4.70225 19.7931 4.66613 19.5941C4.6549 19.5315 4.64366 19.4777 4.63243 19.4312V19.4304C4.63243 19.4296 4.63243 19.4288 4.63163 19.428C4.6236 19.3959 4.61558 19.367 4.60675 19.3421V19.3413C4.5626 19.2185 4.50161 19.1712 4.3692 19.1415C4.33067 19.1326 4.28573 19.1254 4.23276 19.1174C4.2127 19.1142 4.19264 19.1102 4.17337 19.1046C3.90774 19.0363 3.73198 18.7835 3.63086 18.7595C3.77371 18.7667 4.06102 18.8638 4.4342 18.8879C4.48395 18.8911 4.53532 18.8935 4.58829 18.8935C4.61397 18.8935 4.63884 18.8927 4.66452 18.8927C4.74076 18.8911 4.81861 18.8847 4.89967 18.8742C4.94862 18.8686 4.99838 18.8606 5.04893 18.851C5.39242 18.7851 5.31137 18.8903 5.56898 18.5059C6.30731 17.4016 8.44687 16.709 8.44687 16.709L9.74137 17.3358Z" fill="#782503"/>
        <path d="M15.0131 6.00196C14.1284 5.57899 13.1318 5.3418 12.0766 5.3418C10.226 5.3418 8.55304 6.07321 7.34995 7.25285C7.34907 7.25375 7.34819 7.25465 7.34731 7.25646C6.19109 8.3892 5.4705 9.93862 5.44434 11.6494C5.60572 12.4043 5.89977 13.106 6.29927 13.7247C6.37239 13.8374 6.44814 13.9465 6.52743 14.0539C6.86474 14.5083 7.26247 14.9106 7.70804 15.2461C7.75668 15.2831 7.80538 15.3183 7.85498 15.3534C7.86044 15.357 7.86582 15.3615 7.87128 15.3651C7.93171 15.4075 7.99214 15.449 8.05433 15.4887C8.1382 15.5419 8.22295 15.5933 8.30954 15.642C8.35376 15.6682 8.39886 15.6926 8.44484 15.7169C8.82364 15.9198 9.22676 16.0795 9.6488 16.1876C9.88964 16.2498 10.1367 16.2959 10.3875 16.3247C10.4064 16.3266 10.4245 16.3292 10.4434 16.3302C10.6265 16.35 10.8122 16.3599 10.9998 16.3599C11.3894 16.3599 11.77 16.3185 12.1371 16.2381C12.4573 16.1696 12.7684 16.0722 13.066 15.9478C13.3429 15.8341 13.608 15.6979 13.8615 15.541C14.5793 15.0964 15.198 14.4904 15.6715 13.7688C15.6877 13.7436 15.7049 13.7183 15.7193 13.693C15.7454 13.6552 15.7689 13.6164 15.7914 13.5776C15.8871 13.4216 15.9754 13.2602 16.0566 13.0942C16.1891 12.8246 16.3019 12.5432 16.3957 12.2519C16.5905 11.6395 16.6969 10.9839 16.6969 10.3021C16.6969 8.62097 16.053 7.09953 15.0131 6.00196ZM9.10317 6.5512C9.67225 6.32303 10.236 6.39518 10.364 6.71264C10.4912 7.03009 10.1331 7.472 9.56407 7.70019C8.99499 7.92835 8.43041 7.85711 8.30321 7.53966C8.17609 7.2222 8.53409 6.78028 9.10317 6.5512Z" fill="#B0D356"/>
        <path d="M9.56482 7.70015C8.99574 7.92832 8.43116 7.85707 8.30396 7.53962C8.17684 7.22216 8.53484 6.78025 9.10392 6.55117C9.673 6.323 10.2367 6.39515 10.3647 6.71261C10.4919 7.03007 10.1339 7.47197 9.56482 7.70015Z" fill="#C6E762"/>
        <path d="M8.05425 15.4887C7.9289 15.5906 7.809 15.697 7.69263 15.807C7.55917 15.9324 7.43109 16.0622 7.30934 16.1957C7.26512 16.1524 7.22098 16.1082 7.17853 16.0622C7.14611 16.0289 7.11457 15.9955 7.0839 15.9612C6.06292 14.8357 5.44336 13.3594 5.44336 11.745C5.44336 11.7134 5.44336 11.681 5.44424 11.6494C5.60571 12.4043 5.89968 13.1059 6.29926 13.7246C6.6807 14.3163 7.15781 14.8321 7.70795 15.2461C7.75666 15.2831 7.80538 15.3191 7.85498 15.3534C7.86036 15.357 7.86581 15.3615 7.8712 15.3651C7.93163 15.4075 7.99206 15.4489 8.05425 15.4887Z" fill="#7AA946"/>
        <path d="M17.2819 16.606C17.1115 17.5177 16.4539 18.305 15.5151 18.8227C15.4592 18.8543 15.4024 18.884 15.3447 18.9129C15.2671 18.9517 15.1868 18.9887 15.1057 19.0239H15.1048C14.9136 19.1068 14.7143 19.1799 14.5068 19.2412C14.3851 19.2773 14.2606 19.3088 14.1335 19.3377C13.6915 19.4351 13.2199 19.4838 12.7311 19.473C12.4145 19.4657 12.1069 19.4351 11.8094 19.3837C11.4919 19.3278 11.1879 19.2475 10.9002 19.1447C10.893 19.142 10.8859 19.1402 10.8795 19.1375C10.2139 18.8976 9.63858 18.5414 9.19847 18.1049C9.08572 17.993 8.98203 17.8758 8.88733 17.754C8.80972 17.6531 8.73854 17.5493 8.67449 17.442C8.56351 17.2571 8.47338 17.0632 8.40837 16.863C8.40211 16.8459 8.39577 16.8278 8.3904 16.8097C8.34441 16.6565 8.31103 16.4995 8.29297 16.3399C8.47691 16.4842 8.66904 16.6195 8.86839 16.743C8.90169 16.7646 8.93604 16.7854 8.97031 16.8061C8.99639 16.845 9.0244 16.8846 9.05233 16.9225C9.0776 16.9568 9.10288 16.991 9.12993 17.0244C9.13715 17.0343 9.1443 17.0434 9.15336 17.0532C9.17231 17.0785 9.19212 17.1029 9.21291 17.1272C9.22825 17.1453 9.24357 17.1642 9.25979 17.1822C9.28049 17.2066 9.30127 17.2309 9.32295 17.2543C9.32744 17.2589 9.33193 17.2643 9.33643 17.2688C9.36797 17.304 9.40136 17.3392 9.43474 17.3734C9.46002 17.3996 9.48522 17.4248 9.51139 17.4501C9.52944 17.4681 9.5475 17.4862 9.56644 17.5024C9.59621 17.5322 9.62687 17.5601 9.65841 17.5872C9.69179 17.6178 9.72606 17.6467 9.76121 17.6756C9.78103 17.6927 9.79997 17.7089 9.82076 17.7242C9.85415 17.7513 9.88745 17.7774 9.92083 17.8027C9.96866 17.8388 10.0164 17.874 10.066 17.9082C10.1147 17.9425 10.1653 17.9759 10.2158 18.0083C10.3168 18.0732 10.4214 18.1346 10.5287 18.1914C10.5693 18.213 10.6108 18.2347 10.6531 18.2545C10.6721 18.2645 10.6919 18.2735 10.7108 18.2825C10.7596 18.306 10.8083 18.3285 10.8579 18.3492C10.9138 18.3736 10.9706 18.3971 11.0283 18.4187C11.0707 18.4349 11.114 18.4512 11.1573 18.4656C11.1582 18.4656 11.16 18.4674 11.1618 18.4674C11.1952 18.48 11.2286 18.4908 11.2619 18.5008C11.2926 18.5116 11.3233 18.5206 11.3539 18.5296C11.4152 18.5486 11.4774 18.5657 11.5388 18.581C11.5578 18.5865 11.5767 18.591 11.5956 18.5955C11.6146 18.6008 11.6335 18.6044 11.6525 18.609C11.6831 18.6162 11.7138 18.6225 11.7444 18.6288C11.7525 18.6306 11.7598 18.6324 11.767 18.6333C11.8121 18.6433 11.8581 18.6514 11.9032 18.6586C11.9437 18.6658 11.9852 18.673 12.0258 18.6784C12.0312 18.6793 12.0358 18.6802 12.0402 18.6802H12.042C12.0998 18.6893 12.1584 18.6965 12.217 18.7019C12.2486 18.7055 12.281 18.7091 12.3135 18.7109C12.3776 18.7163 12.4425 18.7208 12.5074 18.7235H12.5174C12.5795 18.7262 12.6417 18.7271 12.704 18.7271C12.7554 18.7271 12.8068 18.7262 12.8573 18.7244C12.8709 18.7244 12.8844 18.7235 12.8979 18.7227C12.9899 18.7199 13.081 18.7127 13.1712 18.7037C13.1865 18.7037 13.2018 18.701 13.2172 18.6991C13.2478 18.6965 13.2776 18.6929 13.3065 18.6883H13.3101C13.32 18.6874 13.329 18.6856 13.3389 18.6848C13.3759 18.6793 13.4129 18.6739 13.4489 18.6676C13.4651 18.6658 13.4823 18.6631 13.4985 18.6595C13.5238 18.6559 13.5491 18.6504 13.5743 18.6459C13.5996 18.6423 13.6249 18.6369 13.6492 18.6316C13.66 18.6288 13.6708 18.627 13.6816 18.6252C13.7141 18.6189 13.7466 18.6117 13.7781 18.6036C13.816 18.5955 13.8539 18.5855 13.8918 18.5756C13.9297 18.5657 13.9667 18.5558 14.0036 18.545C14.0793 18.5233 14.1533 18.4999 14.2272 18.4737C14.2498 18.4665 14.2723 18.4584 14.2949 18.4503C14.3292 18.4386 14.3644 18.425 14.3977 18.4115C14.4113 18.4069 14.4239 18.4016 14.4365 18.3961C14.5267 18.361 14.6151 18.3222 14.7016 18.2807C14.7188 18.2726 14.7359 18.2645 14.753 18.2554C14.7855 18.2392 14.818 18.223 14.8495 18.2068C14.8829 18.1896 14.9163 18.1715 14.9488 18.1536C14.9614 18.1463 14.9731 18.14 14.9857 18.1328C15.0218 18.1121 15.0578 18.0913 15.0931 18.0696C15.1237 18.0516 15.1534 18.0336 15.1823 18.0138C15.1949 18.0074 15.2067 17.9993 15.2193 17.9903C15.2319 17.9831 15.2446 17.974 15.2563 17.9659C15.2608 17.9642 15.2662 17.9606 15.2707 17.957C15.2915 17.9434 15.3131 17.9289 15.3338 17.9136C15.3375 17.9119 15.3402 17.91 15.3438 17.9064C15.36 17.8965 15.3762 17.8848 15.3925 17.8721C15.4196 17.8532 15.4475 17.8325 15.4745 17.8117C15.4953 17.7955 15.516 17.7802 15.5368 17.7639C15.5972 17.717 15.6549 17.6692 15.7126 17.6188C15.719 17.6133 15.7261 17.6079 15.7325 17.6016C15.7631 17.5746 15.7938 17.5466 15.8244 17.5177C15.8344 17.5087 15.8452 17.4997 15.8552 17.4888C15.8614 17.4835 15.8678 17.478 15.8732 17.4717C15.911 17.4356 15.9472 17.3996 15.9832 17.3617C16.0283 17.3157 16.0716 17.2688 16.1131 17.221C16.151 17.1795 16.187 17.1362 16.2213 17.0929C16.2358 17.0767 16.2492 17.0595 16.2619 17.0425C16.2781 17.0235 16.2926 17.0036 16.307 16.9847C16.3178 16.9712 16.3286 16.9567 16.3394 16.9423C16.353 16.9242 16.3656 16.9072 16.3773 16.89C16.3918 16.8702 16.4062 16.8503 16.4206 16.8296C16.5333 16.6663 16.6344 16.495 16.7227 16.3164H16.7236C16.9112 16.4048 17.0979 16.5013 17.2819 16.606Z" fill="#B14A23"/>
        <path d="M18.7115 11.746C18.7115 12.5415 18.561 13.3035 18.2858 14.0061C18.2065 14.2117 18.1154 14.4128 18.0135 14.6068C18 14.6347 17.9855 14.6618 17.9702 14.6897C17.7772 15.0495 17.5499 15.3896 17.292 15.7043C17.117 15.9199 16.9276 16.1237 16.7248 16.3149C16.7248 16.3149 16.7244 16.3152 16.7238 16.3158C16.7238 16.3158 16.7238 16.3167 16.7229 16.3167C16.6805 16.35 16.6382 16.3834 16.5958 16.415C16.5354 16.461 16.474 16.5052 16.4118 16.5484C16.3694 16.5782 16.327 16.608 16.2837 16.6369C16.1746 16.7099 16.0627 16.7803 15.9491 16.8461C15.9148 16.8668 15.8806 16.8867 15.8454 16.9056C15.7841 16.9408 15.7218 16.9742 15.6596 17.0066C15.6073 17.0346 15.5541 17.0616 15.5009 17.0868C15.4495 17.1121 15.399 17.1364 15.3466 17.16C15.297 17.1825 15.2475 17.2051 15.197 17.2267C15.15 17.2474 15.1032 17.2664 15.0554 17.2853C15.0319 17.2952 15.0085 17.3043 14.9841 17.3132C14.9535 17.3258 14.9228 17.3376 14.8921 17.3484C14.8407 17.3673 14.7893 17.3863 14.737 17.4043C14.6847 17.4224 14.6324 17.4395 14.5801 17.4567C14.5277 17.4729 14.4745 17.4891 14.4213 17.5044C14.3465 17.527 14.2708 17.5477 14.195 17.5667C14.1274 17.5838 14.0588 17.6001 13.9903 17.6154C13.9722 17.6199 13.9533 17.6235 13.9343 17.628C13.9018 17.6343 13.8685 17.6416 13.8352 17.6478C13.818 17.6514 13.8009 17.655 13.7828 17.6578C13.7215 17.6695 13.6593 17.6803 13.597 17.6902C13.5844 17.6929 13.5718 17.6948 13.5592 17.6965C13.5006 17.7055 13.441 17.7137 13.3815 17.7218C13.34 17.7272 13.2985 17.7326 13.257 17.7363C13.2156 17.7416 13.1741 17.7453 13.1326 17.7489C13.0361 17.7578 12.9387 17.7651 12.8404 17.7696C12.7908 17.7723 12.7411 17.7741 12.6915 17.775C12.6645 17.7768 12.6383 17.7768 12.6113 17.7768C12.5716 17.7786 12.5329 17.7786 12.4932 17.7786C12.4318 17.7786 12.3705 17.7777 12.3101 17.7759C12.2912 17.7759 12.2731 17.775 12.255 17.7741C12.2136 17.7732 12.173 17.7714 12.1324 17.7687C12.1297 17.7696 12.1288 17.7696 12.1261 17.7687H12.1189C12.0945 17.7669 12.0711 17.766 12.0467 17.7642C11.9457 17.7579 11.8456 17.7498 11.7464 17.738C11.7085 17.7344 11.6706 17.7299 11.6328 17.7245C11.6274 17.7245 11.6229 17.7245 11.6183 17.7227C11.5976 17.7209 11.5778 17.7182 11.558 17.7146C11.5534 17.7146 11.5489 17.7146 11.5444 17.7128C11.5011 17.7074 11.4578 17.701 11.4146 17.6938C11.382 17.6893 11.3496 17.6839 11.3171 17.6785C11.291 17.674 11.2648 17.6695 11.2386 17.6641C11.2053 17.6587 11.1728 17.6523 11.1394 17.6452C11.1151 17.6406 11.0907 17.6361 11.0655 17.6299C11.0646 17.6307 11.0637 17.6298 11.0619 17.6289C11.0051 17.6172 10.9483 17.6046 10.8915 17.591C10.8347 17.5775 10.7787 17.5631 10.7228 17.5486C10.6732 17.536 10.6245 17.5225 10.5758 17.508C10.5018 17.4864 10.4297 17.4639 10.3575 17.4405C10.3052 17.4233 10.253 17.4062 10.2015 17.3872C10.1528 17.3701 10.1051 17.353 10.0572 17.334C10.0104 17.316 9.96341 17.2979 9.91743 17.279C9.91021 17.2762 9.90211 17.2736 9.89488 17.269C9.89312 17.27 9.89215 17.269 9.89039 17.2673C9.84168 17.2474 9.79296 17.2267 9.74433 17.2051H9.74336C9.72081 17.196 9.69826 17.1861 9.67666 17.1753C9.65411 17.1653 9.63157 17.1554 9.60901 17.1446C9.60628 17.1446 9.60452 17.1428 9.60267 17.1419C9.55941 17.1221 9.51792 17.1022 9.47555 17.0815C9.41777 17.0535 9.36095 17.0247 9.30413 16.9949C9.24739 16.9651 9.19146 16.9344 9.1364 16.9029C9.08055 16.8714 9.02549 16.8397 8.97141 16.8064C8.73506 16.6648 8.50963 16.5088 8.29407 16.3402C8.08308 16.1751 7.88285 15.9965 7.69434 15.808C7.8107 15.698 7.9306 15.5916 8.05596 15.4897C8.13983 15.5429 8.22465 15.5943 8.31125 15.643C8.35539 15.6692 8.40049 15.6935 8.44648 15.7178C8.82528 15.9208 9.22839 16.0804 9.65052 16.1887C9.89128 16.2509 10.1384 16.2968 10.3891 16.3257C10.5902 16.3492 10.7949 16.3609 11.0015 16.3609C11.7302 16.3609 12.4274 16.2147 13.0677 15.9487C13.3446 15.8351 13.6097 15.6989 13.8631 15.542C14.581 15.0974 15.1997 14.4913 15.6731 13.7698C15.6894 13.7445 15.7065 13.7193 15.721 13.6941C15.7471 13.6562 15.7706 13.6174 15.7931 13.5787C15.8887 13.4226 15.9771 13.2612 16.0583 13.0952C16.1909 12.8256 16.3036 12.5442 16.3973 12.2529C16.5922 11.6405 16.6986 10.9848 16.6986 10.303C16.6986 8.62196 16.0547 7.1005 15.0148 6.00293C17.2064 7.04819 18.7125 9.2271 18.7125 11.746H18.7115Z" fill="#7AA946"/>
        <path d="M20.0323 16.9282C20.0197 17.2899 19.9521 18.4343 19.5769 18.4226C19.2585 18.0754 18.905 17.7453 18.52 17.4387C18.3513 17.3043 18.1799 17.1771 18.0059 17.0572C18.3504 16.8732 18.7445 16.7695 19.1621 16.7695C19.4687 16.7695 19.7627 16.8264 20.0333 16.9282L20.0323 16.9282Z" fill="#C86335"/>
        <path d="M20.6955 19.8724C20.6955 19.8913 20.6955 19.9103 20.6946 19.9283C20.3888 19.4044 20.0155 18.8975 19.5771 18.4231C19.9523 18.4348 20.02 17.2903 20.0327 16.9287C20.0335 16.9287 20.0344 16.9296 20.0353 16.9296C20.4611 17.7711 20.6946 18.7559 20.6946 19.8724H20.6955Z" fill="#B14A23"/>
        <path d="M16.7221 16.3164C16.0827 17.6214 14.7416 18.5133 13.3095 18.6883C13.048 18.7217 12.781 18.7344 12.5168 18.7235C12.5168 18.7235 12.5158 18.7226 12.5149 18.7235C11.1216 18.6757 9.75428 17.9668 8.96973 16.8061C9.2637 16.9847 9.57572 17.1398 9.8932 17.2688C9.90042 17.2733 9.90941 17.2769 9.91663 17.2787C10.2873 17.4303 10.6733 17.5484 11.0647 17.6295C13.0218 18.0507 15.1556 17.5709 16.7221 16.3164Z" fill="#782503"/>
        <path d="M20.6932 19.9282C20.3874 19.4042 20.0141 18.8974 19.5758 18.4231C19.2575 18.0758 18.9039 17.7457 18.5188 17.4391C18.3501 17.3047 18.1788 17.1775 18.0047 17.0576C17.7676 16.8934 17.5258 16.7429 17.2805 16.6058C17.1236 17.4452 16.5532 18.1787 15.7311 18.6938C15.4874 18.8277 14.7994 19.1785 13.9531 19.3741C13.5639 19.4468 13.1538 19.4822 12.7308 19.4729C12.4143 19.4656 12.1067 19.435 11.8091 19.3835C11.4917 19.3276 11.1877 19.2474 10.9 19.1446C10.8928 19.1418 10.8856 19.1401 10.8793 19.1373C10.2137 18.8975 9.6383 18.5412 9.19819 18.1047C9.08543 17.9928 8.98174 17.8756 8.88704 17.7538C8.80952 17.6529 8.73825 17.5491 8.67421 17.4418C8.56331 17.2569 8.4731 17.063 8.40817 16.8628C8.40183 16.8457 8.39549 16.8276 8.39011 16.8096C8.34412 16.6563 8.31074 16.4994 8.29269 16.3398C8.0817 16.1747 7.88147 15.9961 7.69295 15.8076C7.55949 15.933 7.43141 16.0629 7.30966 16.1964C7.29257 16.2144 7.27628 16.2334 7.25919 16.2513C7.23302 16.2811 7.20598 16.3118 7.1807 16.3424C7.14194 16.3875 7.10406 16.4326 7.06617 16.4786C7.03006 16.5228 6.99491 16.5679 6.95976 16.613C6.92822 16.6536 6.8966 16.6951 6.86594 16.7365C6.84251 16.7682 6.81995 16.8006 6.79741 16.8331C6.67655 16.997 6.4967 17.2979 6.39967 17.477L6.39791 17.4788C6.27978 17.7006 6.17601 17.9298 6.0895 18.1643C6.0885 18.1684 6.08759 18.1727 6.08661 18.1769C6.0876 18.1727 6.08825 18.1684 6.08926 18.1642C6.08476 18.175 6.08116 18.1867 6.07666 18.1976C6.07602 18.1988 6.07577 18.1994 6.07577 18.1994C5.87281 18.7568 5.76367 19.3448 5.76367 19.9526C5.76367 20.4089 5.81872 20.8535 5.92425 21.2819C6.49333 23.6025 8.5207 25.4595 11.1424 26.1078C11.7954 26.2693 12.4863 26.3559 13.1996 26.3559C16.7376 26.3559 19.7426 24.1688 20.5065 21.3C20.5164 21.264 20.5255 21.2279 20.5345 21.1918C20.5715 21.0439 20.6012 20.8933 20.6256 20.7418C20.6688 20.4748 20.6923 20.2033 20.6941 19.9282L20.6932 19.9282Z" fill="#B14A23"/>
        <path d="M5.52539 10.7375C5.52539 10.7375 7.08194 11.5978 9.82008 12.8752C11.2475 13.541 15.5731 15.5182 15.5731 15.5182L16.368 13.064L5.70857 9.94727L5.52539 10.7375Z" fill="#7AA946"/>
        <path d="M15.6324 18.7554C15.6247 19.1561 15.8549 21.3368 14.6275 22.7569C13.428 24.1446 11.0708 24.6782 8.64621 23.6404C7.55867 23.1748 6.30811 21.5493 6.0362 20.0067C6.02815 19.9993 5.96582 19.6135 5.96582 19.2131C5.96582 18.4033 6.11664 18.0068 6.39783 17.4788L6.39959 17.477C6.7329 16.8619 7.13508 16.3315 7.69288 15.8076C7.88139 15.9961 8.08162 16.1747 8.29261 16.3398C8.48754 18.0629 10.2301 19.204 12.1708 19.4299C12.9464 19.5202 14.3263 19.4743 15.6324 18.7554Z" fill="#C86335"/>
        <path d="M15.1054 19.025C15.1054 19.025 15.6105 20.1551 14.3442 21.0154C14.3442 21.0154 14.282 20.4834 14.0761 20.4168C13.8381 20.3398 13.4026 20.3843 12.8704 20.4524C12.5516 20.4931 10.6271 20.7742 10.436 20.9752C10.297 21.1213 10.3095 21.2526 10.3523 21.7709C10.3825 22.1363 10.3678 22.2123 10.4654 22.3696C10.6284 22.6321 10.8966 22.7338 11.1646 22.859C11.5073 23.019 11.8504 23.1139 12.034 23.2001C12.034 23.2001 11.547 23.2413 10.6755 23.0342C10.6755 23.0342 10.6848 23.2164 10.8048 23.5256C10.9323 23.854 10.9738 23.9045 11.0406 23.9538C11.159 24.041 11.3223 24.0479 11.5323 24.0844C11.7422 24.1208 11.9881 24.1334 12.3256 24.1658C12.3256 24.1658 11.7724 24.2853 11.276 24.3103C11.276 24.3103 11.3073 24.4026 11.3869 24.5173C11.498 24.6774 11.5078 24.7265 11.8247 24.7624C12.2722 24.8131 12.9604 24.922 14.0489 24.7351C17.4788 24.1458 18.6297 20.7649 16.5738 17.9922C16.5738 17.9922 16.314 18.207 15.8848 18.5428C15.3914 18.929 15.1054 19.025 15.1054 19.025Z" fill="#C86335"/>
        <path d="M16.6128 17.9463C16.6128 17.9463 15.7859 18.617 15.7674 18.6307C15.89 18.933 15.9644 20.1148 15.4731 21.205C15.1748 21.8668 15.0646 21.8865 14.1868 22.0812C13.8649 22.1526 12.8453 22.3762 12.2129 22.4641C12.4129 22.6725 12.6312 23.2602 12.6399 24.0882C12.6425 24.3342 12.6133 24.5865 12.5818 24.8352C12.9922 24.8655 13.507 24.8318 14.0485 24.7339C15.2524 24.5164 16.2656 24.0337 16.9656 22.9896C17.8339 21.6946 17.9596 19.8692 16.6128 17.9463Z" fill="#B14A23"/>
        <path d="M12.2332 15.023C11.7726 14.9331 11.3994 14.4853 11.3994 14.0254V13.2823C11.3994 12.8216 11.7726 12.5255 12.2332 12.6202C12.6939 12.7149 13.0679 13.1635 13.0679 13.6201V14.3577C13.0679 14.8151 12.6947 15.1128 12.2332 15.0222V15.023Z" fill="#191D2E"/>
        <path d="M6.87524 12.9956C6.45471 12.9057 6.11523 12.4916 6.11523 12.0711V11.1811C6.11523 10.7605 6.45551 10.4973 6.87524 10.5928C7.29577 10.6875 7.63524 11.1032 7.63524 11.5197V12.4033C7.63524 12.8198 7.29496 13.0855 6.87524 12.9948V12.9956Z" fill="#191D2E"/>
        <path d="M8.03293 11.6988L6.7248 9.90834C6.65979 9.81926 6.5346 9.7992 6.44472 9.865L6.42787 9.87704C6.33879 9.94204 6.31873 10.0672 6.38453 10.1571L7.69346 11.9476C7.75847 12.0367 7.88367 12.0567 7.97354 11.9909L7.99039 11.9789C8.07947 11.9139 8.09954 11.7887 8.03373 11.6988L8.03293 11.6988Z" fill="#191D2E"/>
        <path d="M11.0441 13.4868L13.227 12.3143C13.3289 12.2598 13.3674 12.1322 13.3128 12.0294C13.2583 11.9267 13.1307 11.8882 13.0279 11.9427L10.845 13.1153C10.7431 13.1698 10.7046 13.2974 10.7592 13.4002C10.8138 13.5029 10.9413 13.5414 11.0441 13.4868Z" fill="#191D2E"/>
        <path d="M11.6318 15.2068V15.9748C11.6318 16.0495 11.582 16.1137 11.5106 16.1329L9.44169 16.84L8.60384 17.1249L8.12473 17.2886C7.82057 17.3921 7.48751 17.368 7.20101 17.222L4.97959 16.0904L4.77093 15.9844C4.71316 15.9548 4.68105 15.9026 4.67543 15.8456C4.67383 15.8392 4.67383 15.8328 4.67383 15.8263V15.0615L8.86787 16.2693H8.86868L10.7594 15.6161L11.5724 15.137L11.6318 15.2076V15.2068Z" fill="#F26638"/>
        <path d="M9.44143 16.076L8.12447 16.5246C7.82031 16.6282 7.48726 16.6041 7.20075 16.4588L4.77068 15.2213C4.64709 15.1587 4.64067 14.9854 4.75784 14.9124L6.15505 14.0488L9.44143 16.0768V16.076Z" fill="#FFC44D"/>
        <path d="M11.5419 15.0692C11.6759 15.1366 11.655 15.3348 11.5098 15.3725L8.11505 16.5282C8.08696 16.5338 8.05727 16.537 8.02758 16.537C7.96257 16.537 7.90238 16.5242 7.8462 16.5009L7.79965 16.4776L5.29655 15.2016L5.23395 15.1695C5.09832 15.0893 5.00684 14.9408 5.00684 14.7698V14.7618C5.02931 14.741 5.05338 14.7233 5.07826 14.7089L5.10956 14.692L5.12481 14.6848L7.15442 13.4304L7.41926 13.2667L7.47383 13.2378H7.47624C7.5276 13.2161 7.58218 13.2041 7.64076 13.2041C7.69934 13.2041 7.75311 13.2153 7.80287 13.2362L7.85664 13.2635L11.5403 15.0692L11.5419 15.0692Z" fill="#FFC44D"/>
        <path d="M8.28738 16.47L8.12447 16.5254C7.82031 16.6289 7.48726 16.6049 7.20075 16.4596L4.77068 15.2213C4.64709 15.1587 4.64067 14.9853 4.75784 14.9123L4.86538 14.8457C4.85173 14.9219 4.88544 15.0046 4.96409 15.0447L7.52417 16.3488C7.76091 16.47 8.02816 16.511 8.28738 16.47Z" fill="#FFD571"/>
        <path d="M10.0367 14.3321L6.43656 15.7959L5.25684 15.1972L8.83484 13.7432L10.0367 14.3321Z" fill="#FFD571"/>
        <path d="M7.3446 14.384C7.44893 14.384 7.53319 14.2998 7.53319 14.1954C7.53319 14.0911 7.44893 14.0068 7.3446 14.0068C7.24027 14.0068 7.15601 14.0911 7.15601 14.1954C7.15601 14.2998 7.24027 14.384 7.3446 14.384Z" fill="#F26638"/>
        <path d="M8.52941 15.0823C8.63374 15.0823 8.71801 14.998 8.71801 14.8937C8.71801 14.7893 8.63374 14.7051 8.52941 14.7051C8.42509 14.7051 8.34082 14.7893 8.34082 14.8937C8.34082 14.998 8.42509 15.0823 8.52941 15.0823Z" fill="#F26638"/>
        <path d="M11.0786 20.1897C11.3036 20.5141 12.1276 20.8887 14.5249 19.3779C14.5249 19.3779 13.6509 20.8013 12.1276 21.001C10.9602 21.1542 11.0786 20.1897 11.0786 20.1897Z" fill="#E6E6E6"/>
        <path d="M6.80333 7.8623C6.80333 7.8623 5.11601 9.08265 4.82298 9.37568C4.52994 9.66871 14.1325 14.3991 15.2359 13.7692C16.472 13.0636 17.8893 11.989 17.8893 11.989C17.8893 11.989 8.63385 10.4075 6.80333 7.8623Z" fill="#627FF3"/>
        <path d="M4.98373 9.2334C4.91376 9.29153 4.85813 9.3403 4.82298 9.37545C4.52995 9.66849 14.1325 14.3989 15.2359 13.769C15.3128 13.725 15.3905 13.6797 15.4684 13.6333C13.6132 13.6001 6.18923 10.1063 4.98373 9.2334Z" fill="#7891FF"/>
        <path d="M12.4594 11.4818C13.559 12.0811 14.5649 12.8053 15.5044 13.6118C16.6682 12.9146 17.8892 11.989 17.8892 11.989C17.8892 11.989 8.63372 10.4075 6.80321 7.8623C6.80321 7.8623 6.14705 8.33687 5.58203 8.76519C7.94212 9.41862 10.3123 10.3118 12.4594 11.4818Z" fill="#466AF3"/>
        <path d="M6.80371 7.86273C6.80371 7.86273 6.91602 8.69556 10.2226 10.2125C14.4872 12.1689 17.8897 11.9894 17.8897 11.9894C17.8897 11.9894 18.5334 11.6731 18.7081 11.4984C18.8827 11.3238 19.3191 6.41317 14.0377 4.92264C9.18045 3.55181 6.80371 6.88698 6.80371 7.86273Z" fill="#E6E6E6"/>
        <path d="M15.3845 5.42914C14.983 5.23445 14.5357 5.06328 14.0373 4.92264C10.6818 3.97564 8.51041 5.27451 7.48828 6.4899C9.33458 4.83062 12.5578 4.39986 15.3845 5.42914Z" fill="white"/>
        <path d="M16.5752 6.167C16.8767 6.63348 17.1333 7.12612 17.3223 7.64358C17.7086 8.70123 17.7519 10.1316 16.8535 10.9654C16.4341 11.3546 15.8367 11.3442 15.3068 11.2652C14.5416 11.1511 13.7758 10.9887 13.0297 10.7857C11.6032 10.3977 10.0619 9.94141 8.80065 9.14737C7.99096 8.63764 7.34123 7.93961 7.08508 7.05812C6.89749 7.38193 6.80371 7.66822 6.80371 7.86164C6.80371 7.86164 6.91602 8.69446 10.2226 10.2114C14.4872 12.1678 17.8897 11.9883 17.8897 11.9883C17.8897 11.9883 18.5334 11.672 18.7081 11.4973C18.8477 11.3577 19.154 8.1931 16.5752 6.167Z" fill="#B3B5BA"/>
        <path d="M9.56506 7.70015C8.99599 7.92832 8.4314 7.85707 8.3042 7.53962C8.17708 7.22216 8.53509 6.78025 9.10416 6.55117C9.67324 6.323 10.2369 6.39515 10.3649 6.71261C10.4921 7.03007 10.1341 7.47197 9.56506 7.70015Z" fill="white"/>
        <path d="M9.31719 10.5115C9.73031 10.3634 10.7956 10.5202 11.0443 11.0889C11.2929 11.6577 10.3294 11.7805 9.68648 11.5389C8.96365 11.2674 8.61897 10.7617 9.31719 10.5115Z" fill="#3E56BD"/>
        <path d="M10.5108 10.3409C10.5108 10.3409 10.641 8.26284 10.9406 7.28897C11.2403 6.3151 13.8623 5.0166 13.8623 5.0166L14.2368 5.06655C14.2368 5.06655 11.5627 6.48861 11.3526 7.47618C11.2391 8.00962 11.0923 10.5865 11.0923 10.5865L10.5108 10.3409Z" fill="#B3B5BA"/>
        <path d="M13.5497 4.69234C13.5557 4.64273 14.4353 4.55023 14.5643 4.88085C14.5851 4.93424 14.5713 5.15857 14.5627 5.19863C14.518 5.40672 14.1213 5.4379 13.8416 5.32014C13.7374 5.27627 13.6446 5.22589 13.5818 5.16314C13.4897 5.07101 13.5318 4.83895 13.5497 4.69234Z" fill="#466AF3"/>
        <path d="M13.7254 4.55134C13.922 4.48089 14.429 4.55551 14.5473 4.82618C14.6657 5.09686 14.2071 5.15529 13.9011 5.04033C13.5571 4.91109 13.3931 4.67043 13.7254 4.55134Z" fill="#627FF3"/>
    </g>
</svg>