<svg
        xmlns="http://www.w3.org/2000/svg"
        width="25"
        height="26"
        viewBox="0 0 25 26"
        fill="none"
>
    <circle cx="12.3976" cy="12.8974" r="10.1434" fill="white" />
    <path
            d="M12.5 0.5C19.4039 0.5 25 6.09609 25 13C25 19.9039 19.4039 25.5 12.5 25.5C5.5961 25.5 4.01817e-08 19.9039 2.58851e-08 13C1.15884e-08 6.09609 5.5961 0.5 12.5 0.5ZM15.1188 4.84375C14.9281 4.75 14.7375 4.84375 14.6906 5.03359C14.643 5.08125 14.643 5.12891 14.643 5.22344L14.643 5.8875L14.6508 5.96875C14.6916 6.12948 14.7904 6.26944 14.9281 6.36172C18.6422 7.68984 20.5469 11.8148 19.1656 15.4656C18.4516 17.4578 16.8805 18.9742 14.9281 19.6859C14.7375 19.7805 14.643 19.9227 14.643 20.1602L14.643 20.8242L14.6469 20.893C14.6543 20.968 14.6857 21.0386 14.7363 21.0945C14.7869 21.1503 14.8542 21.1884 14.9281 21.2031C14.9758 21.2031 15.0711 21.2031 15.1188 21.1563C16.1903 20.8216 17.1851 20.2783 18.0458 19.5577C18.9065 18.837 19.6161 17.9532 20.1339 16.9572C20.6516 15.9611 20.9672 14.8725 21.0625 13.754C21.1578 12.6354 21.0309 11.5091 20.6891 10.4398C19.8328 7.73672 17.7375 5.69687 15.1188 4.84375ZM10.0719 4.79687C10.0242 4.79687 9.92891 4.79687 9.88125 4.84375C8.80971 5.17838 7.81495 5.72166 6.95424 6.44232C6.09353 7.16298 5.38387 8.04678 4.86613 9.04283C4.34839 10.0389 4.03279 11.1275 3.93751 12.246C3.84222 13.3646 3.96914 14.4909 4.31094 15.5602C5.16719 18.2164 7.21485 20.2555 9.88125 21.1086C10.0719 21.2031 10.2625 21.1086 10.3094 20.9188C10.357 20.8719 10.357 20.8234 10.357 20.7289L10.357 20.0648L10.3492 20.0023C10.3164 19.8703 10.1938 19.7195 10.0719 19.6383C6.35781 18.3102 4.45313 14.1852 5.83438 10.5344C6.54844 8.54219 8.11953 7.02578 10.0719 6.31406C10.2625 6.21953 10.357 6.07734 10.357 5.83984L10.357 5.17578L10.3531 5.10703C10.3457 5.03201 10.3144 4.96137 10.2637 4.90552C10.2131 4.84967 10.1458 4.81159 10.0719 4.79687ZM12.8336 7.2625H12.1188L12.05 7.26875C11.8938 7.3 11.7797 7.43438 11.7375 7.64219L11.7375 8.73281L11.5758 8.75781C10.2414 8.99531 9.40547 9.91641 9.40547 11.0563C9.40547 12.6203 10.357 13.2367 12.357 13.4742C13.6906 13.7109 14.1188 13.9961 14.1188 14.7547C14.1188 15.5125 13.4523 16.0344 12.5477 16.0344C11.3094 16.0344 10.8813 15.5133 10.7383 14.8016C10.6914 14.6125 10.5477 14.5172 10.4047 14.5172H9.59532L9.5336 14.5227C9.45656 14.5351 9.38664 14.575 9.3368 14.6351C9.28695 14.6951 9.26056 14.7712 9.2625 14.8492L9.2625 14.8961L9.28828 15.0367C9.51485 16.1492 10.2773 16.9453 11.7859 17.1727L11.7859 18.3109L11.7922 18.3797C11.8234 18.5344 11.9586 18.6484 12.1672 18.6898H12.8813L12.95 18.6836C13.1063 18.6523 13.2203 18.518 13.2625 18.3109L13.2625 17.1719L13.4242 17.1406C14.7625 16.8578 15.643 15.8898 15.643 14.6586C15.643 12.9992 14.643 12.4305 12.643 12.193C11.2141 12.0031 10.9289 11.6242 10.9289 10.9602C10.9289 10.2961 11.4055 9.86953 12.357 9.86953C13.2141 9.86953 13.6906 10.1539 13.9281 10.8656C13.9529 10.9344 13.9981 10.994 14.0578 11.0364C14.1174 11.0787 14.1886 11.1017 14.2617 11.1023H15.0234L15.0852 11.0977C15.1625 11.0854 15.2327 11.0454 15.2827 10.9852C15.3327 10.9249 15.3591 10.8486 15.357 10.7703L15.357 10.7234L15.3281 10.5883C15.2108 10.1027 14.9434 9.66641 14.5638 9.34156C14.1843 9.01672 13.712 8.81983 13.2141 8.77891L13.2141 7.64219L13.2078 7.57344C13.1766 7.41797 13.0422 7.30391 12.8336 7.2625Z"
            fill="#3E73C4"
    />
</svg>